<svg xmlns="http://www.w3.org/2000/svg" viewBox="0 0 1200 400">
  <defs>
    <linearGradient id="inputGrad" x1="0%" y1="0%" x2="100%" y2="0%">
      <stop offset="0%" style="stop-color:#FFA07A;stop-opacity:1" />
      <stop offset="100%" style="stop-color:#FF7F50;stop-opacity:1" />
    </linearGradient>
    <linearGradient id="reshapeGrad" x1="0%" y1="0%" x2="100%" y2="0%">
      <stop offset="0%" style="stop-color:#98FB98;stop-opacity:1" />
      <stop offset="100%" style="stop-color:#32CD32;stop-opacity:1" />
    </linearGradient>
    <linearGradient id="biDirGrad" x1="0%" y1="0%" x2="100%" y2="0%">
      <stop offset="0%" style="stop-color:#87CEFA;stop-opacity:1" />
      <stop offset="100%" style="stop-color:#4169E1;stop-opacity:1" />
    </linearGradient>
    <linearGradient id="attentionGrad" x1="0%" y1="0%" x2="100%" y2="0%">
      <stop offset="0%" style="stop-color:#FF7F50;stop-opacity:1" />
      <stop offset="100%" style="stop-color:#FF4500;stop-opacity:1" />
    </linearGradient>
    <linearGradient id="poolGrad" x1="0%" y1="0%" x2="100%" y2="0%">
      <stop offset="0%" style="stop-color:#20B2AA;stop-opacity:1" />
      <stop offset="100%" style="stop-color:#008B8B;stop-opacity:1" />
    </linearGradient>
    <linearGradient id="denseGrad" x1="0%" y1="0%" x2="100%" y2="0%">
      <stop offset="0%" style="stop-color:#BA55D3;stop-opacity:1" />
      <stop offset="100%" style="stop-color:#8A2BE2;stop-opacity:1" />
    </linearGradient>
    <linearGradient id="softmaxGrad" x1="0%" y1="0%" x2="100%" y2="0%">
      <stop offset="0%" style="stop-color:#DDA0DD;stop-opacity:1" />
      <stop offset="100%" style="stop-color:#9370DB;stop-opacity:1" />
    </linearGradient>
    <marker id="arrowhead" markerWidth="10" markerHeight="7" refX="0" refY="3.5" orient="auto">
      <polygon points="0 0, 10 3.5, 0 7" fill="#555"/>
    </marker>
  </defs>
  
  <!-- Input Layer -->
  <g transform="translate(10,150)">
    <rect width="80" height="100" fill="url(#inputGrad)" stroke="#000"/>
    <rect x="10" y="10" width="60" height="80" fill="url(#inputGrad)" stroke="#000" opacity="0.7"/>
    <rect x="20" y="20" width="40" height="60" fill="url(#inputGrad)" stroke="#000" opacity="0.5"/>
  </g>
  <text x="50" y="270" text-anchor="middle" font-size="14" fill="#333">Input</text>
  <text x="50" y="290" text-anchor="middle" font-size="12" fill="#666">60000</text>
  
  <!-- Reshape Layer -->
  <g transform="translate(120,100)">
    <rect width="80" height="200" fill="url(#reshapeGrad)" stroke="#000"/>
    <rect x="10" y="20" width="60" height="160" fill="url(#reshapeGrad)" stroke="#000" opacity="0.7"/>
    <rect x="20" y="40" width="40" height="120" fill="url(#reshapeGrad)" stroke="#000" opacity="0.5"/>
  </g>
  <text x="160" y="320" text-anchor="middle" font-size="14" fill="#333">Reshape</text>
  <text x="160" y="340" text-anchor="middle" font-size="12" fill="#666">200x300</text>
  
  <!-- Bidirectional Layers -->
  <g transform="translate(230,75)">
    <rect width="80" height="250" fill="url(#biDirGrad)" stroke="#000"/>
    <rect x="10" y="20" width="60" height="210" fill="url(#biDirGrad)" stroke="#000" opacity="0.7"/>
    <rect x="20" y="40" width="40" height="170" fill="url(#biDirGrad)" stroke="#000" opacity="0.5"/>
  </g>
  <text x="270" y="345" text-anchor="middle" font-size="14" fill="#333">Bidirectional</text>
  <text x="270" y="365" text-anchor="middle" font-size="12" fill="#666">200x512</text>
  
  <g transform="translate(340,75)">
    <rect width="80" height="250" fill="url(#biDirGrad)" stroke="#000"/>
    <rect x="10" y="20" width="60" height="210" fill="url(#biDirGrad)" stroke="#000" opacity="0.7"/>
    <rect x="20" y="40" width="40" height="170" fill="url(#biDirGrad)" stroke="#000" opacity="0.5"/>
  </g>
  <text x="380" y="345" text-anchor="middle" font-size="14" fill="#333">Bidirectional</text>
  <text x="380" y="365" text-anchor="middle" font-size="12" fill="#666">200x512</text>
  
  <!-- Multi-Head Attention -->
  <g transform="translate(450,75)">
    <rect width="80" height="250" fill="url(#attentionGrad)" stroke="#000"/>
    <rect x="10" y="20" width="60" height="210" fill="url(#attentionGrad)" stroke="#000" opacity="0.7"/>
    <rect x="20" y="40" width="40" height="170" fill="url(#attentionGrad)" stroke="#000" opacity="0.5"/>
  </g>
  <text x="490" y="345" text-anchor="middle" font-size="14" fill="#333">Multi-Head</text>
  <text x="490" y="365" text-anchor="middle" font-size="12" fill="#666">Attention</text>
  
  <!-- Global Average Pooling -->
  <g transform="translate(560,175)">
    <rect width="80" height="50" fill="url(#poolGrad)" stroke="#000"/>
    <rect x="10" y="10" width="60" height="30" fill="url(#poolGrad)" stroke="#000" opacity="0.7"/>
  </g>
  <text x="600" y="245" text-anchor="middle" font-size="14" fill="#333">Global Avg</text>
  <text x="600" y="265" text-anchor="middle" font-size="12" fill="#666">Pooling</text>
  
  <!-- Dense Layer -->
  <g transform="translate(670,190)">
    <rect width="80" height="20" fill="url(#denseGrad)" stroke="#000"/>
    <rect x="10" y="5" width="60" height="10" fill="url(#denseGrad)" stroke="#000" opacity="0.7"/>
  </g>
  <text x="710" y="230" text-anchor="middle" font-size="14" fill="#333">Dense</text>
  <text x="710" y="250" text-anchor="middle" font-size="12" fill="#666">11</text>
  
  <!-- Softmax Layer -->
  <g transform="translate(780,185)">
    <rect width="80" height="30" fill="url(#softmaxGrad)" stroke="#000"/>
    <rect x="10" y="5" width="60" height="20" fill="url(#softmaxGrad)" stroke="#000" opacity="0.7"/>
  </g>
  <text x="820" y="235" text-anchor="middle" font-size="14" fill="#333">Softmax</text>
  <text x="820" y="255" text-anchor="middle" font-size="12" fill="#666">11</text>
  
  <!-- Connections -->
  <line x1="90" y1="200" x2="120" y2="200" stroke="#555" stroke-width="2" marker-end="url(#arrowhead)"/>
  <line x1="200" y1="200" x2="230" y2="200" stroke="#555" stroke-width="2" marker-end="url(#arrowhead)"/>
  <line x1="310" y1="200" x2="340" y2="200" stroke="#555" stroke-width="2" marker-end="url(#arrowhead)"/>
  <line x1="420" y1="200" x2="450" y2="200" stroke="#555" stroke-width="2" marker-end="url(#arrowhead)"/>
  <line x1="530" y1="200" x2="560" y2="200" stroke="#555" stroke-width="2" marker-end="url(#arrowhead)"/>
  <line x1="640" y1="200" x2="670" y2="200" stroke="#555" stroke-width="2" marker-end="url(#arrowhead)"/>
  <line x1="750" y1="200" x2="780" y2="200" stroke="#555" stroke-width="2" marker-end="url(#arrowhead)"/>
</svg>
