<?xml version="1.0" encoding="utf-8" standalone="no"?>
<!DOCTYPE svg PUBLIC "-//W3C//DTD SVG 1.1//EN"
  "http://www.w3.org/Graphics/SVG/1.1/DTD/svg11.dtd">
<svg xmlns:xlink="http://www.w3.org/1999/xlink" width="728.532812pt" height="614.274375pt" viewBox="0 0 728.532812 614.274375" xmlns="http://www.w3.org/2000/svg" version="1.1">
 <metadata>
  <rdf:RDF xmlns:dc="http://purl.org/dc/elements/1.1/" xmlns:cc="http://creativecommons.org/ns#" xmlns:rdf="http://www.w3.org/1999/02/22-rdf-syntax-ns#">
   <cc:Work>
    <dc:type rdf:resource="http://purl.org/dc/dcmitype/StillImage"/>
    <dc:date>2024-07-24T13:24:07.793557</dc:date>
    <dc:format>image/svg+xml</dc:format>
    <dc:creator>
     <cc:Agent>
      <dc:title>Matplotlib v3.9.1, https://matplotlib.org/</dc:title>
     </cc:Agent>
    </dc:creator>
   </cc:Work>
  </rdf:RDF>
 </metadata>
 <defs>
  <style type="text/css">*{stroke-linejoin: round; stroke-linecap: butt}</style>
 </defs>
 <g id="figure_1">
  <g id="patch_1">
   <path d="M 0 614.274375 
L 728.532812 614.274375 
L 728.532812 0 
L 0 0 
z
" style="fill: #ffffff"/>
  </g>
  <g id="axes_1">
   <g id="patch_2">
    <path d="M 43.78125 576.718125 
L 713.38125 576.718125 
L 713.38125 22.318125 
L 43.78125 22.318125 
z
" style="fill: #ffffff"/>
   </g>
   <g id="matplotlib.axis_1">
    <g id="xtick_1">
     <g id="line2d_1">
      <defs>
       <path id="m96c9049dbd" d="M 0 0 
L 0 3.5 
" style="stroke: #000000; stroke-width: 0.8"/>
      </defs>
      <g>
       <use xlink:href="#m96c9049dbd" x="43.78125" y="576.718125" style="stroke: #000000; stroke-width: 0.8"/>
      </g>
     </g>
     <g id="text_1">
      <!-- 0.0 -->
      <g transform="translate(35.829688 591.316563) scale(0.1 -0.1)">
       <defs>
        <path id="DejaVuSans-30" d="M 2034 4250 
Q 1547 4250 1301 3770 
Q 1056 3291 1056 2328 
Q 1056 1369 1301 889 
Q 1547 409 2034 409 
Q 2525 409 2770 889 
Q 3016 1369 3016 2328 
Q 3016 3291 2770 3770 
Q 2525 4250 2034 4250 
z
M 2034 4750 
Q 2819 4750 3233 4129 
Q 3647 3509 3647 2328 
Q 3647 1150 3233 529 
Q 2819 -91 2034 -91 
Q 1250 -91 836 529 
Q 422 1150 422 2328 
Q 422 3509 836 4129 
Q 1250 4750 2034 4750 
z
" transform="scale(0.015625)"/>
        <path id="DejaVuSans-2e" d="M 684 794 
L 1344 794 
L 1344 0 
L 684 0 
L 684 794 
z
" transform="scale(0.015625)"/>
       </defs>
       <use xlink:href="#DejaVuSans-30"/>
       <use xlink:href="#DejaVuSans-2e" x="63.623047"/>
       <use xlink:href="#DejaVuSans-30" x="95.410156"/>
      </g>
     </g>
    </g>
    <g id="xtick_2">
     <g id="line2d_2">
      <g>
       <use xlink:href="#m96c9049dbd" x="177.70125" y="576.718125" style="stroke: #000000; stroke-width: 0.8"/>
      </g>
     </g>
     <g id="text_2">
      <!-- 0.2 -->
      <g transform="translate(169.749688 591.316563) scale(0.1 -0.1)">
       <defs>
        <path id="DejaVuSans-32" d="M 1228 531 
L 3431 531 
L 3431 0 
L 469 0 
L 469 531 
Q 828 903 1448 1529 
Q 2069 2156 2228 2338 
Q 2531 2678 2651 2914 
Q 2772 3150 2772 3378 
Q 2772 3750 2511 3984 
Q 2250 4219 1831 4219 
Q 1534 4219 1204 4116 
Q 875 4013 500 3803 
L 500 4441 
Q 881 4594 1212 4672 
Q 1544 4750 1819 4750 
Q 2544 4750 2975 4387 
Q 3406 4025 3406 3419 
Q 3406 3131 3298 2873 
Q 3191 2616 2906 2266 
Q 2828 2175 2409 1742 
Q 1991 1309 1228 531 
z
" transform="scale(0.015625)"/>
       </defs>
       <use xlink:href="#DejaVuSans-30"/>
       <use xlink:href="#DejaVuSans-2e" x="63.623047"/>
       <use xlink:href="#DejaVuSans-32" x="95.410156"/>
      </g>
     </g>
    </g>
    <g id="xtick_3">
     <g id="line2d_3">
      <g>
       <use xlink:href="#m96c9049dbd" x="311.62125" y="576.718125" style="stroke: #000000; stroke-width: 0.8"/>
      </g>
     </g>
     <g id="text_3">
      <!-- 0.4 -->
      <g transform="translate(303.669688 591.316563) scale(0.1 -0.1)">
       <defs>
        <path id="DejaVuSans-34" d="M 2419 4116 
L 825 1625 
L 2419 1625 
L 2419 4116 
z
M 2253 4666 
L 3047 4666 
L 3047 1625 
L 3713 1625 
L 3713 1100 
L 3047 1100 
L 3047 0 
L 2419 0 
L 2419 1100 
L 313 1100 
L 313 1709 
L 2253 4666 
z
" transform="scale(0.015625)"/>
       </defs>
       <use xlink:href="#DejaVuSans-30"/>
       <use xlink:href="#DejaVuSans-2e" x="63.623047"/>
       <use xlink:href="#DejaVuSans-34" x="95.410156"/>
      </g>
     </g>
    </g>
    <g id="xtick_4">
     <g id="line2d_4">
      <g>
       <use xlink:href="#m96c9049dbd" x="445.54125" y="576.718125" style="stroke: #000000; stroke-width: 0.8"/>
      </g>
     </g>
     <g id="text_4">
      <!-- 0.6 -->
      <g transform="translate(437.589688 591.316563) scale(0.1 -0.1)">
       <defs>
        <path id="DejaVuSans-36" d="M 2113 2584 
Q 1688 2584 1439 2293 
Q 1191 2003 1191 1497 
Q 1191 994 1439 701 
Q 1688 409 2113 409 
Q 2538 409 2786 701 
Q 3034 994 3034 1497 
Q 3034 2003 2786 2293 
Q 2538 2584 2113 2584 
z
M 3366 4563 
L 3366 3988 
Q 3128 4100 2886 4159 
Q 2644 4219 2406 4219 
Q 1781 4219 1451 3797 
Q 1122 3375 1075 2522 
Q 1259 2794 1537 2939 
Q 1816 3084 2150 3084 
Q 2853 3084 3261 2657 
Q 3669 2231 3669 1497 
Q 3669 778 3244 343 
Q 2819 -91 2113 -91 
Q 1303 -91 875 529 
Q 447 1150 447 2328 
Q 447 3434 972 4092 
Q 1497 4750 2381 4750 
Q 2619 4750 2861 4703 
Q 3103 4656 3366 4563 
z
" transform="scale(0.015625)"/>
       </defs>
       <use xlink:href="#DejaVuSans-30"/>
       <use xlink:href="#DejaVuSans-2e" x="63.623047"/>
       <use xlink:href="#DejaVuSans-36" x="95.410156"/>
      </g>
     </g>
    </g>
    <g id="xtick_5">
     <g id="line2d_5">
      <g>
       <use xlink:href="#m96c9049dbd" x="579.46125" y="576.718125" style="stroke: #000000; stroke-width: 0.8"/>
      </g>
     </g>
     <g id="text_5">
      <!-- 0.8 -->
      <g transform="translate(571.509688 591.316563) scale(0.1 -0.1)">
       <defs>
        <path id="DejaVuSans-38" d="M 2034 2216 
Q 1584 2216 1326 1975 
Q 1069 1734 1069 1313 
Q 1069 891 1326 650 
Q 1584 409 2034 409 
Q 2484 409 2743 651 
Q 3003 894 3003 1313 
Q 3003 1734 2745 1975 
Q 2488 2216 2034 2216 
z
M 1403 2484 
Q 997 2584 770 2862 
Q 544 3141 544 3541 
Q 544 4100 942 4425 
Q 1341 4750 2034 4750 
Q 2731 4750 3128 4425 
Q 3525 4100 3525 3541 
Q 3525 3141 3298 2862 
Q 3072 2584 2669 2484 
Q 3125 2378 3379 2068 
Q 3634 1759 3634 1313 
Q 3634 634 3220 271 
Q 2806 -91 2034 -91 
Q 1263 -91 848 271 
Q 434 634 434 1313 
Q 434 1759 690 2068 
Q 947 2378 1403 2484 
z
M 1172 3481 
Q 1172 3119 1398 2916 
Q 1625 2713 2034 2713 
Q 2441 2713 2670 2916 
Q 2900 3119 2900 3481 
Q 2900 3844 2670 4047 
Q 2441 4250 2034 4250 
Q 1625 4250 1398 4047 
Q 1172 3844 1172 3481 
z
" transform="scale(0.015625)"/>
       </defs>
       <use xlink:href="#DejaVuSans-30"/>
       <use xlink:href="#DejaVuSans-2e" x="63.623047"/>
       <use xlink:href="#DejaVuSans-38" x="95.410156"/>
      </g>
     </g>
    </g>
    <g id="xtick_6">
     <g id="line2d_6">
      <g>
       <use xlink:href="#m96c9049dbd" x="713.38125" y="576.718125" style="stroke: #000000; stroke-width: 0.8"/>
      </g>
     </g>
     <g id="text_6">
      <!-- 1.0 -->
      <g transform="translate(705.429688 591.316563) scale(0.1 -0.1)">
       <defs>
        <path id="DejaVuSans-31" d="M 794 531 
L 1825 531 
L 1825 4091 
L 703 3866 
L 703 4441 
L 1819 4666 
L 2450 4666 
L 2450 531 
L 3481 531 
L 3481 0 
L 794 0 
L 794 531 
z
" transform="scale(0.015625)"/>
       </defs>
       <use xlink:href="#DejaVuSans-31"/>
       <use xlink:href="#DejaVuSans-2e" x="63.623047"/>
       <use xlink:href="#DejaVuSans-30" x="95.410156"/>
      </g>
     </g>
    </g>
    <g id="text_7">
     <!-- False Positive Rate -->
     <g transform="translate(332.114844 604.994688) scale(0.1 -0.1)">
      <defs>
       <path id="DejaVuSans-46" d="M 628 4666 
L 3309 4666 
L 3309 4134 
L 1259 4134 
L 1259 2759 
L 3109 2759 
L 3109 2228 
L 1259 2228 
L 1259 0 
L 628 0 
L 628 4666 
z
" transform="scale(0.015625)"/>
       <path id="DejaVuSans-61" d="M 2194 1759 
Q 1497 1759 1228 1600 
Q 959 1441 959 1056 
Q 959 750 1161 570 
Q 1363 391 1709 391 
Q 2188 391 2477 730 
Q 2766 1069 2766 1631 
L 2766 1759 
L 2194 1759 
z
M 3341 1997 
L 3341 0 
L 2766 0 
L 2766 531 
Q 2569 213 2275 61 
Q 1981 -91 1556 -91 
Q 1019 -91 701 211 
Q 384 513 384 1019 
Q 384 1609 779 1909 
Q 1175 2209 1959 2209 
L 2766 2209 
L 2766 2266 
Q 2766 2663 2505 2880 
Q 2244 3097 1772 3097 
Q 1472 3097 1187 3025 
Q 903 2953 641 2809 
L 641 3341 
Q 956 3463 1253 3523 
Q 1550 3584 1831 3584 
Q 2591 3584 2966 3190 
Q 3341 2797 3341 1997 
z
" transform="scale(0.015625)"/>
       <path id="DejaVuSans-6c" d="M 603 4863 
L 1178 4863 
L 1178 0 
L 603 0 
L 603 4863 
z
" transform="scale(0.015625)"/>
       <path id="DejaVuSans-73" d="M 2834 3397 
L 2834 2853 
Q 2591 2978 2328 3040 
Q 2066 3103 1784 3103 
Q 1356 3103 1142 2972 
Q 928 2841 928 2578 
Q 928 2378 1081 2264 
Q 1234 2150 1697 2047 
L 1894 2003 
Q 2506 1872 2764 1633 
Q 3022 1394 3022 966 
Q 3022 478 2636 193 
Q 2250 -91 1575 -91 
Q 1294 -91 989 -36 
Q 684 19 347 128 
L 347 722 
Q 666 556 975 473 
Q 1284 391 1588 391 
Q 1994 391 2212 530 
Q 2431 669 2431 922 
Q 2431 1156 2273 1281 
Q 2116 1406 1581 1522 
L 1381 1569 
Q 847 1681 609 1914 
Q 372 2147 372 2553 
Q 372 3047 722 3315 
Q 1072 3584 1716 3584 
Q 2034 3584 2315 3537 
Q 2597 3491 2834 3397 
z
" transform="scale(0.015625)"/>
       <path id="DejaVuSans-65" d="M 3597 1894 
L 3597 1613 
L 953 1613 
Q 991 1019 1311 708 
Q 1631 397 2203 397 
Q 2534 397 2845 478 
Q 3156 559 3463 722 
L 3463 178 
Q 3153 47 2828 -22 
Q 2503 -91 2169 -91 
Q 1331 -91 842 396 
Q 353 884 353 1716 
Q 353 2575 817 3079 
Q 1281 3584 2069 3584 
Q 2775 3584 3186 3129 
Q 3597 2675 3597 1894 
z
M 3022 2063 
Q 3016 2534 2758 2815 
Q 2500 3097 2075 3097 
Q 1594 3097 1305 2825 
Q 1016 2553 972 2059 
L 3022 2063 
z
" transform="scale(0.015625)"/>
       <path id="DejaVuSans-20" transform="scale(0.015625)"/>
       <path id="DejaVuSans-50" d="M 1259 4147 
L 1259 2394 
L 2053 2394 
Q 2494 2394 2734 2622 
Q 2975 2850 2975 3272 
Q 2975 3691 2734 3919 
Q 2494 4147 2053 4147 
L 1259 4147 
z
M 628 4666 
L 2053 4666 
Q 2838 4666 3239 4311 
Q 3641 3956 3641 3272 
Q 3641 2581 3239 2228 
Q 2838 1875 2053 1875 
L 1259 1875 
L 1259 0 
L 628 0 
L 628 4666 
z
" transform="scale(0.015625)"/>
       <path id="DejaVuSans-6f" d="M 1959 3097 
Q 1497 3097 1228 2736 
Q 959 2375 959 1747 
Q 959 1119 1226 758 
Q 1494 397 1959 397 
Q 2419 397 2687 759 
Q 2956 1122 2956 1747 
Q 2956 2369 2687 2733 
Q 2419 3097 1959 3097 
z
M 1959 3584 
Q 2709 3584 3137 3096 
Q 3566 2609 3566 1747 
Q 3566 888 3137 398 
Q 2709 -91 1959 -91 
Q 1206 -91 779 398 
Q 353 888 353 1747 
Q 353 2609 779 3096 
Q 1206 3584 1959 3584 
z
" transform="scale(0.015625)"/>
       <path id="DejaVuSans-69" d="M 603 3500 
L 1178 3500 
L 1178 0 
L 603 0 
L 603 3500 
z
M 603 4863 
L 1178 4863 
L 1178 4134 
L 603 4134 
L 603 4863 
z
" transform="scale(0.015625)"/>
       <path id="DejaVuSans-74" d="M 1172 4494 
L 1172 3500 
L 2356 3500 
L 2356 3053 
L 1172 3053 
L 1172 1153 
Q 1172 725 1289 603 
Q 1406 481 1766 481 
L 2356 481 
L 2356 0 
L 1766 0 
Q 1100 0 847 248 
Q 594 497 594 1153 
L 594 3053 
L 172 3053 
L 172 3500 
L 594 3500 
L 594 4494 
L 1172 4494 
z
" transform="scale(0.015625)"/>
       <path id="DejaVuSans-76" d="M 191 3500 
L 800 3500 
L 1894 563 
L 2988 3500 
L 3597 3500 
L 2284 0 
L 1503 0 
L 191 3500 
z
" transform="scale(0.015625)"/>
       <path id="DejaVuSans-52" d="M 2841 2188 
Q 3044 2119 3236 1894 
Q 3428 1669 3622 1275 
L 4263 0 
L 3584 0 
L 2988 1197 
Q 2756 1666 2539 1819 
Q 2322 1972 1947 1972 
L 1259 1972 
L 1259 0 
L 628 0 
L 628 4666 
L 2053 4666 
Q 2853 4666 3247 4331 
Q 3641 3997 3641 3322 
Q 3641 2881 3436 2590 
Q 3231 2300 2841 2188 
z
M 1259 4147 
L 1259 2491 
L 2053 2491 
Q 2509 2491 2742 2702 
Q 2975 2913 2975 3322 
Q 2975 3731 2742 3939 
Q 2509 4147 2053 4147 
L 1259 4147 
z
" transform="scale(0.015625)"/>
      </defs>
      <use xlink:href="#DejaVuSans-46"/>
      <use xlink:href="#DejaVuSans-61" x="48.394531"/>
      <use xlink:href="#DejaVuSans-6c" x="109.673828"/>
      <use xlink:href="#DejaVuSans-73" x="137.457031"/>
      <use xlink:href="#DejaVuSans-65" x="189.556641"/>
      <use xlink:href="#DejaVuSans-20" x="251.080078"/>
      <use xlink:href="#DejaVuSans-50" x="282.867188"/>
      <use xlink:href="#DejaVuSans-6f" x="339.544922"/>
      <use xlink:href="#DejaVuSans-73" x="400.726562"/>
      <use xlink:href="#DejaVuSans-69" x="452.826172"/>
      <use xlink:href="#DejaVuSans-74" x="480.609375"/>
      <use xlink:href="#DejaVuSans-69" x="519.818359"/>
      <use xlink:href="#DejaVuSans-76" x="547.601562"/>
      <use xlink:href="#DejaVuSans-65" x="606.78125"/>
      <use xlink:href="#DejaVuSans-20" x="668.304688"/>
      <use xlink:href="#DejaVuSans-52" x="700.091797"/>
      <use xlink:href="#DejaVuSans-61" x="767.324219"/>
      <use xlink:href="#DejaVuSans-74" x="828.603516"/>
      <use xlink:href="#DejaVuSans-65" x="867.8125"/>
     </g>
    </g>
   </g>
   <g id="matplotlib.axis_2">
    <g id="ytick_1">
     <g id="line2d_7">
      <defs>
       <path id="mb5dd55fee4" d="M 0 0 
L -3.5 0 
" style="stroke: #000000; stroke-width: 0.8"/>
      </defs>
      <g>
       <use xlink:href="#mb5dd55fee4" x="43.78125" y="576.718125" style="stroke: #000000; stroke-width: 0.8"/>
      </g>
     </g>
     <g id="text_8">
      <!-- 0.0 -->
      <g transform="translate(20.878125 580.517344) scale(0.1 -0.1)">
       <use xlink:href="#DejaVuSans-30"/>
       <use xlink:href="#DejaVuSans-2e" x="63.623047"/>
       <use xlink:href="#DejaVuSans-30" x="95.410156"/>
      </g>
     </g>
    </g>
    <g id="ytick_2">
     <g id="line2d_8">
      <g>
       <use xlink:href="#mb5dd55fee4" x="43.78125" y="471.118125" style="stroke: #000000; stroke-width: 0.8"/>
      </g>
     </g>
     <g id="text_9">
      <!-- 0.2 -->
      <g transform="translate(20.878125 474.917344) scale(0.1 -0.1)">
       <use xlink:href="#DejaVuSans-30"/>
       <use xlink:href="#DejaVuSans-2e" x="63.623047"/>
       <use xlink:href="#DejaVuSans-32" x="95.410156"/>
      </g>
     </g>
    </g>
    <g id="ytick_3">
     <g id="line2d_9">
      <g>
       <use xlink:href="#mb5dd55fee4" x="43.78125" y="365.518125" style="stroke: #000000; stroke-width: 0.8"/>
      </g>
     </g>
     <g id="text_10">
      <!-- 0.4 -->
      <g transform="translate(20.878125 369.317344) scale(0.1 -0.1)">
       <use xlink:href="#DejaVuSans-30"/>
       <use xlink:href="#DejaVuSans-2e" x="63.623047"/>
       <use xlink:href="#DejaVuSans-34" x="95.410156"/>
      </g>
     </g>
    </g>
    <g id="ytick_4">
     <g id="line2d_10">
      <g>
       <use xlink:href="#mb5dd55fee4" x="43.78125" y="259.918125" style="stroke: #000000; stroke-width: 0.8"/>
      </g>
     </g>
     <g id="text_11">
      <!-- 0.6 -->
      <g transform="translate(20.878125 263.717344) scale(0.1 -0.1)">
       <use xlink:href="#DejaVuSans-30"/>
       <use xlink:href="#DejaVuSans-2e" x="63.623047"/>
       <use xlink:href="#DejaVuSans-36" x="95.410156"/>
      </g>
     </g>
    </g>
    <g id="ytick_5">
     <g id="line2d_11">
      <g>
       <use xlink:href="#mb5dd55fee4" x="43.78125" y="154.318125" style="stroke: #000000; stroke-width: 0.8"/>
      </g>
     </g>
     <g id="text_12">
      <!-- 0.8 -->
      <g transform="translate(20.878125 158.117344) scale(0.1 -0.1)">
       <use xlink:href="#DejaVuSans-30"/>
       <use xlink:href="#DejaVuSans-2e" x="63.623047"/>
       <use xlink:href="#DejaVuSans-38" x="95.410156"/>
      </g>
     </g>
    </g>
    <g id="ytick_6">
     <g id="line2d_12">
      <g>
       <use xlink:href="#mb5dd55fee4" x="43.78125" y="48.718125" style="stroke: #000000; stroke-width: 0.8"/>
      </g>
     </g>
     <g id="text_13">
      <!-- 1.0 -->
      <g transform="translate(20.878125 52.517344) scale(0.1 -0.1)">
       <use xlink:href="#DejaVuSans-31"/>
       <use xlink:href="#DejaVuSans-2e" x="63.623047"/>
       <use xlink:href="#DejaVuSans-30" x="95.410156"/>
      </g>
     </g>
    </g>
    <g id="text_14">
     <!-- True Positive Rate -->
     <g transform="translate(14.798438 344.047813) rotate(-90) scale(0.1 -0.1)">
      <defs>
       <path id="DejaVuSans-54" d="M -19 4666 
L 3928 4666 
L 3928 4134 
L 2272 4134 
L 2272 0 
L 1638 0 
L 1638 4134 
L -19 4134 
L -19 4666 
z
" transform="scale(0.015625)"/>
       <path id="DejaVuSans-72" d="M 2631 2963 
Q 2534 3019 2420 3045 
Q 2306 3072 2169 3072 
Q 1681 3072 1420 2755 
Q 1159 2438 1159 1844 
L 1159 0 
L 581 0 
L 581 3500 
L 1159 3500 
L 1159 2956 
Q 1341 3275 1631 3429 
Q 1922 3584 2338 3584 
Q 2397 3584 2469 3576 
Q 2541 3569 2628 3553 
L 2631 2963 
z
" transform="scale(0.015625)"/>
       <path id="DejaVuSans-75" d="M 544 1381 
L 544 3500 
L 1119 3500 
L 1119 1403 
Q 1119 906 1312 657 
Q 1506 409 1894 409 
Q 2359 409 2629 706 
Q 2900 1003 2900 1516 
L 2900 3500 
L 3475 3500 
L 3475 0 
L 2900 0 
L 2900 538 
Q 2691 219 2414 64 
Q 2138 -91 1772 -91 
Q 1169 -91 856 284 
Q 544 659 544 1381 
z
M 1991 3584 
L 1991 3584 
z
" transform="scale(0.015625)"/>
      </defs>
      <use xlink:href="#DejaVuSans-54"/>
      <use xlink:href="#DejaVuSans-72" x="46.333984"/>
      <use xlink:href="#DejaVuSans-75" x="87.447266"/>
      <use xlink:href="#DejaVuSans-65" x="150.826172"/>
      <use xlink:href="#DejaVuSans-20" x="212.349609"/>
      <use xlink:href="#DejaVuSans-50" x="244.136719"/>
      <use xlink:href="#DejaVuSans-6f" x="300.814453"/>
      <use xlink:href="#DejaVuSans-73" x="361.996094"/>
      <use xlink:href="#DejaVuSans-69" x="414.095703"/>
      <use xlink:href="#DejaVuSans-74" x="441.878906"/>
      <use xlink:href="#DejaVuSans-69" x="481.087891"/>
      <use xlink:href="#DejaVuSans-76" x="508.871094"/>
      <use xlink:href="#DejaVuSans-65" x="568.050781"/>
      <use xlink:href="#DejaVuSans-20" x="629.574219"/>
      <use xlink:href="#DejaVuSans-52" x="661.361328"/>
      <use xlink:href="#DejaVuSans-61" x="728.59375"/>
      <use xlink:href="#DejaVuSans-74" x="789.873047"/>
      <use xlink:href="#DejaVuSans-65" x="829.082031"/>
     </g>
    </g>
   </g>
   <g id="line2d_13">
    <path d="M 43.78125 576.718125 
L 43.78125 576.184792 
L 43.78125 172.984792 
L 43.78125 152.184792 
L 43.78125 139.384792 
L 43.78125 133.518125 
L 43.78125 126.584792 
L 43.78125 118.051458 
L 43.78125 114.318125 
L 43.78125 112.718125 
L 43.78125 112.184792 
L 43.78125 110.051458 
L 43.78125 107.384792 
L 43.78125 104.184792 
L 43.841078 102.051458 
L 43.841078 100.451458 
L 43.841078 98.318125 
L 43.841078 95.651458 
L 43.841078 93.518125 
L 43.841078 90.318125 
L 43.841078 84.451458 
L 43.841078 83.384792 
L 43.841078 81.251458 
L 43.841078 80.184792 
L 43.841078 78.051458 
L 43.841078 76.984792 
L 43.841078 74.851458 
L 43.841078 72.718125 
L 43.841078 64.718125 
L 43.900907 64.718125 
L 43.900907 54.584792 
L 43.960735 54.584792 
L 43.960735 51.918125 
L 44.080392 51.918125 
L 44.080392 51.384792 
L 44.140221 51.384792 
L 44.140221 50.318125 
L 44.200049 50.318125 
L 44.200049 49.784792 
L 44.259878 49.784792 
L 44.259878 48.718125 
L 413.221922 48.718125 
L 413.341579 48.718125 
L 562.852873 48.718125 
L 562.972529 48.718125 
L 596.655946 48.718125 
L 596.775603 48.718125 
L 712.663309 48.718125 
L 713.38125 48.718125 
" clip-path="url(#p2995d69135)" style="fill: none; stroke: #00ffff; stroke-width: 2; stroke-linecap: square"/>
   </g>
   <g id="line2d_14">
    <path d="M 43.78125 576.718125 
L 43.84325 229.048082 
L 43.84325 196.955462 
L 43.84325 187.786142 
L 43.84325 179.762988 
L 43.84325 173.268053 
L 43.84325 167.537228 
L 43.84325 163.334623 
L 43.84325 159.514073 
L 43.84325 157.603798 
L 43.84325 155.311468 
L 43.84325 152.637083 
L 43.84325 149.198588 
L 43.84325 146.906258 
L 43.84325 146.524203 
L 43.84325 144.995983 
L 43.84325 143.849818 
L 43.84325 140.029268 
L 43.84325 139.647213 
L 43.84325 138.118993 
L 43.84325 136.972828 
L 43.84325 134.680498 
L 43.84325 133.916388 
L 43.84325 132.006113 
L 43.84325 130.477893 
L 43.84325 127.039399 
L 43.84325 126.657344 
L 43.84325 125.893234 
L 43.84325 125.511179 
L 43.84325 124.365014 
L 43.84325 123.982959 
L 43.84325 122.454739 
L 43.84325 120.926519 
L 43.84325 120.162409 
L 43.84325 119.780354 
L 43.84325 118.252134 
L 43.84325 116.341859 
L 43.84325 115.577749 
L 43.84325 114.813639 
L 43.84325 114.049529 
L 43.84325 113.285419 
L 43.84325 111.757199 
L 43.84325 110.611034 
L 43.84325 109.846924 
L 43.84325 107.936649 
L 43.84325 105.644319 
L 43.84325 102.969934 
L 43.84325 102.205824 
L 43.84325 101.441714 
L 43.84325 99.913494 
L 43.84325 98.385274 
L 43.84325 97.621164 
L 43.84325 95.328834 
L 43.90525 95.328834 
L 43.90525 86.923624 
L 43.96725 86.923624 
L 43.96725 86.541569 
L 43.96725 85.777459 
L 44.02925 85.777459 
L 44.02925 59.415665 
L 44.09125 59.415665 
L 44.09125 57.123335 
L 44.21525 57.123335 
L 44.21525 56.74128 
L 44.27725 56.74128 
L 44.27725 54.066895 
L 44.33925 54.066895 
L 44.33925 52.92073 
L 44.52525 52.92073 
L 44.52525 52.15662 
L 44.64925 52.15662 
L 44.64925 51.774565 
L 44.71125 51.774565 
L 44.71125 51.010455 
L 46.07525 51.010455 
L 46.07525 50.6284 
L 46.81925 50.6284 
L 46.81925 50.246345 
L 47.25325 50.246345 
L 47.25325 49.86429 
L 47.31525 49.86429 
L 47.31525 49.482235 
L 48.30725 49.482235 
L 48.30725 49.10018 
L 73.35525 49.10018 
L 73.35525 48.718125 
L 451.55525 48.718125 
L 451.67925 48.718125 
L 571.83525 48.718125 
L 571.95925 48.718125 
L 713.38125 48.718125 
" clip-path="url(#p2995d69135)" style="fill: none; stroke: #ff8c00; stroke-width: 2; stroke-linecap: square"/>
   </g>
   <g id="line2d_15">
    <path d="M 43.78125 576.718125 
L 43.78125 243.244441 
L 43.78125 210.197499 
L 43.78125 195.176162 
L 43.78125 186.16336 
L 43.78125 179.779291 
L 43.78125 175.27289 
L 43.78125 171.517556 
L 43.78125 169.264355 
L 43.78125 167.386688 
L 43.78125 164.006887 
L 43.78125 162.504754 
L 43.78125 159.87602 
L 43.78125 157.998353 
L 43.78125 153.116418 
L 43.78125 152.740885 
L 43.78125 150.112151 
L 43.78125 148.610017 
L 43.78125 148.234483 
L 43.78125 146.356816 
L 43.78125 144.103616 
L 43.78125 143.728082 
L 43.78125 141.474882 
L 43.78125 139.597215 
L 43.78125 138.470614 
L 43.78125 135.090813 
L 43.78125 134.71528 
L 43.78125 133.213146 
L 43.78125 132.086546 
L 43.78125 130.959946 
L 43.78125 130.208879 
L 43.78125 129.457812 
L 43.78125 128.331212 
L 43.78125 127.955678 
L 43.78125 126.829078 
L 43.78125 126.078011 
L 43.78125 124.575877 
L 43.78125 124.200344 
L 43.78125 123.073744 
L 43.78125 122.69821 
L 43.78125 121.947143 
L 43.78125 119.318409 
L 43.78125 118.567343 
L 43.78125 117.816276 
L 43.78125 117.065209 
L 43.78125 115.938609 
L 43.78125 115.187542 
L 43.78125 114.060942 
L 43.78125 112.934341 
L 43.78125 112.183274 
L 43.78125 111.807741 
L 43.78125 111.056674 
L 43.78125 109.179007 
L 43.78125 107.676873 
L 43.78125 107.30134 
L 43.78125 106.550273 
L 43.78125 105.799206 
L 43.78125 105.048139 
L 43.78125 104.672606 
L 43.78125 103.921539 
L 43.78125 103.546006 
L 43.78125 102.794939 
L 43.78125 102.419405 
L 43.78125 101.668338 
L 43.78125 99.415138 
L 43.78125 98.664071 
L 43.78125 98.288538 
L 43.78125 97.537471 
L 43.78125 96.41087 
L 43.78125 95.659804 
L 43.78125 94.908737 
L 43.78125 94.15767 
L 43.78125 88.524668 
L 43.78125 87.773602 
L 43.78125 85.520401 
L 43.78125 84.769334 
L 43.78125 81.014 
L 43.78125 80.262933 
L 43.78125 79.136333 
L 43.843388 79.136333 
L 43.843388 55.102193 
L 43.905526 55.102193 
L 43.905526 49.844725 
L 43.967664 49.844725 
L 43.967664 49.469192 
L 46.950292 49.469192 
L 46.950292 49.093658 
L 408.345393 49.093658 
L 408.345393 48.718125 
L 436.556083 48.718125 
L 436.680359 48.718125 
L 711.268555 48.718125 
L 713.38125 48.718125 
" clip-path="url(#p2995d69135)" style="fill: none; stroke: #6495ed; stroke-width: 2; stroke-linecap: square"/>
   </g>
   <g id="line2d_16">
    <path d="M 43.78125 576.718125 
L 43.84094 227.274142 
L 43.84094 198.792814 
L 43.84094 177.979536 
L 43.84094 169.763768 
L 43.84094 163.738872 
L 43.84094 158.261693 
L 43.84094 154.975386 
L 43.84094 149.498208 
L 43.84094 148.402772 
L 43.84094 146.211901 
L 43.84094 141.830158 
L 43.84094 138.543851 
L 43.84094 136.35298 
L 43.84094 134.709826 
L 43.84094 134.162108 
L 43.84094 131.971237 
L 43.84094 130.875801 
L 43.84094 130.328084 
L 43.90063 128.137212 
L 43.90063 127.589494 
L 43.90063 125.398623 
L 43.90063 123.207752 
L 43.90063 121.01688 
L 43.90063 119.921445 
L 43.90063 118.826009 
L 43.90063 116.08742 
L 43.90063 114.991984 
L 43.90063 113.34883 
L 43.90063 112.253395 
L 43.90063 111.705677 
L 43.90063 110.610241 
L 43.90063 103.489909 
L 43.90063 102.394474 
L 43.90063 101.846756 
L 43.90063 100.75132 
L 43.90063 85.41522 
L 43.960319 85.41522 
L 43.960319 61.315635 
L 44.020009 61.315635 
L 44.020009 60.767918 
L 44.079699 60.767918 
L 44.079699 56.933893 
L 44.139389 56.933893 
L 44.139389 55.838457 
L 44.199078 55.838457 
L 44.199078 54.743021 
L 44.258768 54.743021 
L 44.258768 53.647586 
L 44.378148 53.647586 
L 44.378148 52.55215 
L 44.437838 52.55215 
L 44.437838 52.004432 
L 44.616907 52.004432 
L 44.616907 51.456714 
L 45.094425 51.456714 
L 45.094425 50.908996 
L 45.333184 50.908996 
L 45.333184 50.361279 
L 45.631633 50.361279 
L 45.631633 49.813561 
L 45.989772 49.813561 
L 45.989772 48.718125 
L 712.068075 48.718125 
L 713.38125 48.718125 
" clip-path="url(#p2995d69135)" style="fill: none; stroke: #008000; stroke-width: 2; stroke-linecap: square"/>
   </g>
   <g id="line2d_17">
    <path d="M 43.78125 576.718125 
L 43.839623 173.477619 
L 43.897997 173.477619 
L 43.95637 146.000825 
L 44.014743 146.000825 
L 44.073116 133.376353 
L 44.13149 133.376353 
L 44.189863 121.494496 
L 44.248236 121.494496 
L 44.30661 112.583104 
L 44.364983 112.583104 
L 44.423356 105.89956 
L 44.481729 105.89956 
L 44.540103 101.443863 
L 44.598476 101.443863 
L 44.656849 98.473399 
L 44.773596 98.473399 
L 44.773596 97.730783 
L 44.948716 97.730783 
L 44.948716 94.760319 
L 45.123836 94.760319 
L 45.123836 94.017703 
L 45.298956 94.017703 
L 45.357329 91.789855 
L 45.415702 91.789855 
L 45.415702 90.304623 
L 45.590822 90.304623 
L 45.649195 86.591543 
L 45.765942 86.591543 
L 45.765942 85.848927 
L 45.882688 85.848927 
L 45.882688 84.363695 
L 46.349675 84.363695 
L 46.408048 82.878463 
L 46.816661 82.878463 
L 46.875034 81.39323 
L 46.933408 81.39323 
L 46.933408 79.907998 
L 47.342021 79.907998 
L 47.342021 79.165382 
L 47.69226 79.165382 
L 47.750634 77.68015 
L 48.0425 77.68015 
L 48.0425 76.937534 
L 48.74298 76.937534 
L 48.74298 76.194918 
L 49.034846 76.194918 
L 49.034846 74.709686 
L 49.209966 74.709686 
L 49.209966 73.96707 
L 49.326712 73.96707 
L 49.326712 73.224454 
L 49.676952 73.224454 
L 49.676952 72.481838 
L 49.910445 72.481838 
L 49.968819 70.996606 
L 50.143939 70.996606 
L 50.143939 70.25399 
L 50.552552 70.25399 
L 50.552552 68.768758 
L 51.136284 68.768758 
L 51.136284 68.026142 
L 51.836764 68.026142 
L 51.836764 67.283526 
L 53.062603 67.283526 
L 53.062603 66.54091 
L 53.763082 66.54091 
L 53.763082 65.798294 
L 53.996576 65.798294 
L 53.996576 65.055678 
L 54.988922 65.055678 
L 54.988922 64.313062 
L 55.514281 64.313062 
L 55.514281 63.570446 
L 63.628168 63.570446 
L 63.628168 62.82783 
L 64.153528 62.82783 
L 64.153528 62.085214 
L 65.029127 62.085214 
L 65.029127 61.342598 
L 65.554487 61.342598 
L 65.554487 60.599982 
L 66.254966 60.599982 
L 66.254966 59.857366 
L 66.721953 59.857366 
L 66.721953 59.114749 
L 67.422432 59.114749 
L 67.422432 58.372133 
L 71.742056 58.372133 
L 71.742056 57.629517 
L 72.384162 57.629517 
L 72.384162 56.886901 
L 81.373648 56.886901 
L 81.373648 56.144285 
L 84.175566 56.144285 
L 84.175566 55.401669 
L 114.996663 55.401669 
L 114.996663 54.659053 
L 115.463649 54.659053 
L 115.463649 53.916437 
L 155.040739 53.916437 
L 155.040739 53.173821 
L 174.362298 53.173821 
L 174.362298 52.431205 
L 179.499147 52.431205 
L 179.499147 51.688589 
L 187.204421 51.688589 
L 187.204421 50.945973 
L 197.127881 50.945973 
L 197.127881 50.203357 
L 405.63727 50.203357 
L 405.63727 49.460741 
L 465.002905 49.460741 
L 465.002905 48.718125 
L 713.38125 48.718125 
L 713.38125 48.718125 
" clip-path="url(#p2995d69135)" style="fill: none; stroke: #ff0000; stroke-width: 2; stroke-linecap: square"/>
   </g>
   <g id="line2d_18">
    <path d="M 43.78125 576.718125 
L 43.842987 123.412736 
L 43.904724 123.412736 
L 43.966461 77.173215 
L 44.028198 77.173215 
L 44.089935 68.478604 
L 44.151672 68.478604 
L 44.213409 58.598365 
L 44.275146 58.598365 
L 44.336883 57.807945 
L 44.39862 57.807945 
L 44.39862 56.227107 
L 44.583832 56.227107 
L 44.583832 55.831897 
L 44.83078 55.831897 
L 44.83078 55.436688 
L 44.954254 55.436688 
L 45.015991 54.646269 
L 45.262939 54.646269 
L 45.262939 54.251059 
L 45.386413 54.251059 
L 45.386413 53.85585 
L 45.633361 53.85585 
L 45.695098 53.06543 
L 46.127258 53.06543 
L 46.127258 52.670221 
L 48.411528 52.670221 
L 48.411528 52.275011 
L 49.893218 52.275011 
L 49.893218 51.879802 
L 51.498381 51.879802 
L 51.498381 51.484592 
L 51.992277 51.484592 
L 51.992277 51.089382 
L 53.659177 51.089382 
L 53.659177 50.694173 
L 56.992978 50.694173 
L 56.992978 50.298963 
L 57.239926 50.298963 
L 57.239926 49.903754 
L 82.305167 49.903754 
L 82.305167 49.508544 
L 192.691005 49.508544 
L 192.691005 49.113335 
L 412.660099 49.113335 
L 412.660099 48.718125 
L 713.38125 48.718125 
L 713.38125 48.718125 
" clip-path="url(#p2995d69135)" style="fill: none; stroke: #800080; stroke-width: 2; stroke-linecap: square"/>
   </g>
   <g id="line2d_19">
    <path d="M 43.78125 576.718125 
L 43.96167 185.756293 
L 43.96167 170.641789 
L 43.96167 159.55782 
L 43.96167 157.038736 
L 44.02181 154.015835 
L 44.02181 152.000568 
L 44.02181 150.489117 
L 44.02181 147.970033 
L 44.02181 145.954766 
L 44.02181 142.931865 
L 44.02181 141.420415 
L 44.02181 140.412781 
L 44.02181 138.901331 
L 44.02181 136.886064 
L 44.02181 135.87843 
L 44.02181 134.870797 
L 44.02181 134.36698 
L 44.02181 132.85553 
L 44.02181 132.351713 
L 44.02181 131.344079 
L 44.02181 129.328812 
L 44.02181 127.817362 
L 44.02181 127.313545 
L 44.02181 126.305911 
L 44.02181 115.221942 
L 44.02181 114.214308 
L 44.02181 107.66469 
L 44.081951 107.66469 
L 44.081951 103.130339 
L 44.142091 103.130339 
L 44.142091 95.06927 
L 44.202231 95.06927 
L 44.202231 91.542552 
L 44.262371 91.542552 
L 44.262371 86.000568 
L 44.322511 86.000568 
L 44.322511 80.9624 
L 44.382651 80.9624 
L 44.382651 67.863163 
L 44.442791 67.863163 
L 44.442791 65.344079 
L 44.502931 65.344079 
L 44.502931 64.840262 
L 44.623212 64.840262 
L 44.623212 64.336446 
L 44.683352 64.336446 
L 44.683352 63.832629 
L 44.743492 63.832629 
L 44.743492 60.809728 
L 44.803632 60.809728 
L 44.803632 59.298278 
L 44.863772 59.298278 
L 44.863772 56.779194 
L 45.044192 56.779194 
L 45.044192 55.77156 
L 45.465173 55.77156 
L 45.465173 55.267743 
L 45.525313 55.267743 
L 45.525313 54.763927 
L 45.585453 54.763927 
L 45.585453 54.26011 
L 46.126714 54.26011 
L 46.126714 53.756293 
L 52.561706 53.756293 
L 52.561706 53.252476 
L 59.95894 53.252476 
L 59.95894 52.748659 
L 61.943564 52.748659 
L 61.943564 52.244843 
L 66.393932 52.244843 
L 66.393932 51.741026 
L 72.287663 51.741026 
L 72.287663 51.237209 
L 92.855581 51.237209 
L 92.855581 50.733392 
L 159.911805 50.733392 
L 159.911805 50.229575 
L 196.657413 50.229575 
L 196.657413 49.725759 
L 207.542773 49.725759 
L 207.542773 49.221942 
L 355.487447 49.221942 
L 355.487447 48.718125 
L 574.577873 48.718125 
L 574.698153 48.718125 
L 667.915326 48.718125 
L 668.035606 48.718125 
L 710.855365 48.718125 
L 713.38125 48.718125 
" clip-path="url(#p2995d69135)" style="fill: none; stroke: #a52a2a; stroke-width: 2; stroke-linecap: square"/>
   </g>
   <g id="line2d_20">
    <path d="M 43.78125 576.718125 
L 43.840881 300.806268 
L 43.840881 275.320433 
L 43.840881 263.131556 
L 43.840881 254.820958 
L 43.840881 241.524001 
L 43.840881 235.983602 
L 43.840881 230.443204 
L 43.840881 227.118964 
L 43.840881 226.564925 
L 43.840881 221.024526 
L 43.840881 219.362406 
L 43.840881 217.146247 
L 43.840881 216.038167 
L 43.840881 214.376047 
L 43.840881 213.822007 
L 43.840881 212.713928 
L 43.840881 208.281609 
L 43.840881 205.511409 
L 43.900513 204.40333 
L 43.900513 203.84929 
L 43.900513 201.63313 
L 43.900513 199.416971 
L 43.900513 198.862931 
L 43.900513 197.754851 
L 43.900513 196.092732 
L 43.900513 194.984652 
L 43.900513 192.768492 
L 43.900513 191.106373 
L 43.900513 188.336173 
L 43.900513 187.782133 
L 43.900513 185.011934 
L 43.900513 184.457894 
L 43.900513 182.795775 
L 43.900513 181.687695 
L 43.900513 181.133655 
L 43.900513 180.025575 
L 43.900513 178.917495 
L 43.900513 177.809416 
L 43.900513 177.255376 
L 43.900513 176.147296 
L 43.900513 175.593256 
L 43.900513 173.377097 
L 43.900513 167.836698 
L 43.900513 166.728618 
L 43.900513 164.512459 
L 43.900513 163.404379 
L 43.900513 157.86398 
L 43.900513 156.7559 
L 43.900513 153.985701 
L 43.900513 152.877621 
L 43.900513 150.661462 
L 43.960144 150.661462 
L 43.960144 144.012983 
L 43.960144 142.904904 
L 43.960144 141.242784 
L 43.960144 140.134704 
L 43.960144 126.837747 
L 43.960144 125.729667 
L 43.960144 112.432711 
L 44.019775 112.432711 
L 44.019775 99.135754 
L 44.079407 99.135754 
L 44.079407 96.365554 
L 44.139038 96.365554 
L 44.139038 94.703435 
L 44.198669 94.703435 
L 44.198669 81.960517 
L 44.2583 81.960517 
L 44.2583 74.203959 
L 44.317932 74.203959 
L 44.317932 73.095879 
L 44.377563 73.095879 
L 44.377563 68.66356 
L 44.437194 68.66356 
L 44.437194 67.555481 
L 44.496826 67.555481 
L 44.496826 65.893361 
L 44.556457 65.893361 
L 44.556457 65.339321 
L 44.616088 65.339321 
L 44.616088 64.785281 
L 44.735351 64.785281 
L 44.735351 63.677202 
L 44.794982 63.677202 
L 44.794982 63.123162 
L 44.854614 63.123162 
L 44.854614 62.015082 
L 44.914245 62.015082 
L 44.914245 60.352962 
L 45.331664 60.352962 
L 45.331664 59.244883 
L 45.391295 59.244883 
L 45.391295 58.690843 
L 45.629821 58.690843 
L 45.629821 57.582763 
L 45.927977 57.582763 
L 45.927977 56.474683 
L 47.299497 56.474683 
L 47.299497 55.920643 
L 47.359129 55.920643 
L 47.359129 54.812564 
L 47.478391 54.812564 
L 47.478391 54.258524 
L 47.716917 54.258524 
L 47.716917 53.704484 
L 50.1618 53.704484 
L 50.1618 53.150444 
L 51.115901 53.150444 
L 51.115901 52.042364 
L 51.652583 52.042364 
L 51.652583 51.488324 
L 57.257926 51.488324 
L 57.257926 50.934284 
L 59.881704 50.934284 
L 59.881704 50.380245 
L 60.239492 50.380245 
L 60.239492 49.826205 
L 66.083361 49.826205 
L 66.083361 49.272165 
L 88.981784 49.272165 
L 88.981784 48.718125 
L 711.950099 48.718125 
L 713.38125 48.718125 
" clip-path="url(#p2995d69135)" style="fill: none; stroke: #ffc0cb; stroke-width: 2; stroke-linecap: square"/>
   </g>
   <g id="line2d_21">
    <path d="M 43.78125 576.718125 
L 43.78125 314.271066 
L 43.78125 280.882831 
L 43.78125 266.90636 
L 43.78125 259.141654 
L 43.78125 251.376949 
L 43.78125 248.271066 
L 43.839466 242.059301 
L 43.839466 238.953419 
L 43.839466 235.071066 
L 43.839466 228.859301 
L 43.839466 226.52989 
L 43.839466 225.753419 
L 43.839466 223.424007 
L 43.839466 221.871066 
L 43.839466 221.094596 
L 43.839466 218.765184 
L 43.839466 217.212243 
L 43.839466 214.10636 
L 43.839466 212.553419 
L 43.839466 211.776949 
L 43.839466 209.447537 
L 43.839466 203.235772 
L 43.839466 200.90636 
L 43.839466 194.694596 
L 43.839466 191.588713 
L 43.839466 190.035772 
L 43.839466 188.482831 
L 43.839466 165.965184 
L 43.839466 164.412243 
L 43.839466 156.647537 
L 43.897682 156.647537 
L 43.897682 138.012243 
L 43.955898 138.012243 
L 43.955898 101.518125 
L 44.014114 101.518125 
L 44.014114 96.859301 
L 44.07233 96.859301 
L 44.07233 79.776949 
L 44.130546 79.776949 
L 44.130546 74.341654 
L 44.246978 74.341654 
L 44.246978 73.565184 
L 44.305194 73.565184 
L 44.305194 72.788713 
L 44.36341 72.788713 
L 44.36341 67.353419 
L 44.421626 67.353419 
L 44.421626 65.800478 
L 44.654489 65.800478 
L 44.654489 62.694596 
L 44.770921 62.694596 
L 44.770921 61.918125 
L 44.945569 61.918125 
L 44.945569 61.141654 
L 45.003785 61.141654 
L 45.003785 59.588713 
L 45.062001 59.588713 
L 45.062001 58.812243 
L 45.178433 58.812243 
L 45.178433 58.035772 
L 45.353081 58.035772 
L 45.353081 57.259301 
L 46.342752 57.259301 
L 46.342752 56.482831 
L 46.750264 56.482831 
L 46.750264 55.70636 
L 48.089231 55.70636 
L 48.089231 54.92989 
L 49.602846 54.92989 
L 49.602846 54.153419 
L 54.551203 54.153419 
L 54.551203 53.376949 
L 56.414114 53.376949 
L 56.414114 52.600478 
L 56.76341 52.600478 
L 56.76341 51.824007 
L 57.811297 51.824007 
L 57.811297 51.047537 
L 65.903316 51.047537 
L 65.903316 50.271066 
L 81.738058 50.271066 
L 81.738058 49.494596 
L 350.055428 49.494596 
L 350.055428 48.718125 
L 712.857306 48.718125 
L 713.38125 48.718125 
" clip-path="url(#p2995d69135)" style="fill: none; stroke: #808080; stroke-width: 2; stroke-linecap: square"/>
   </g>
   <g id="line2d_22">
    <path d="M 43.78125 576.718125 
L 43.78125 576.315992 
L 43.78125 260.239831 
L 43.78125 234.50335 
L 43.78125 221.232976 
L 43.78125 212.788194 
L 43.78125 207.158338 
L 43.78125 201.12635 
L 43.78125 198.311423 
L 43.78125 195.094363 
L 43.78125 191.47517 
L 43.78125 189.86664 
L 43.78125 187.453845 
L 43.78125 186.247447 
L 43.78125 185.443182 
L 43.78125 183.43252 
L 43.78125 181.823989 
L 43.78125 180.617592 
L 43.78125 179.009062 
L 43.78125 178.204797 
L 43.78125 176.998399 
L 43.78125 173.781339 
L 43.78125 172.977074 
L 43.78125 171.368544 
L 43.78125 170.966411 
L 43.78125 169.357881 
L 43.78125 168.955749 
L 43.78125 164.130159 
L 43.78125 162.521628 
L 43.78125 160.510966 
L 43.78125 159.304568 
L 43.78125 158.500303 
L 43.78125 158.098171 
L 43.78125 157.293906 
L 43.78125 156.489641 
L 43.78125 154.881111 
L 43.78125 153.674713 
L 43.78125 152.468315 
L 43.78125 151.66405 
L 43.78125 150.05552 
L 43.78125 147.642725 
L 43.78125 146.83846 
L 43.78125 145.632063 
L 43.78125 144.827798 
L 43.78125 142.817135 
L 43.78125 142.01287 
L 43.78125 141.610737 
L 43.78125 139.197942 
L 43.78125 138.79581 
L 43.78125 137.991545 
L 43.78125 136.785147 
L 43.78125 135.176617 
L 43.78125 133.568087 
L 43.78125 132.763822 
L 43.78125 129.948894 
L 43.78125 129.144629 
L 43.78125 128.742497 
L 43.78125 127.133967 
L 43.78125 121.504111 
L 43.78125 120.699846 
L 43.78125 117.884919 
L 43.78125 117.080654 
L 43.78125 110.646533 
L 43.842856 110.646533 
L 43.842856 96.571895 
L 43.904463 96.571895 
L 43.904463 90.539907 
L 43.904463 89.735642 
L 43.904463 78.878064 
L 43.966069 78.878064 
L 43.966069 76.465269 
L 44.027676 76.465269 
L 44.027676 72.846076 
L 44.089282 72.846076 
L 44.089282 62.792763 
L 44.150888 62.792763 
L 44.150888 61.586366 
L 44.335708 61.586366 
L 44.335708 60.379968 
L 44.397314 60.379968 
L 44.397314 57.967173 
L 44.45892 57.967173 
L 44.45892 57.162908 
L 44.520527 57.162908 
L 44.520527 55.554378 
L 44.705346 55.554378 
L 44.705346 54.750113 
L 44.951772 54.750113 
L 44.951772 54.34798 
L 45.013378 54.34798 
L 45.013378 53.543715 
L 45.383016 53.543715 
L 45.383016 53.141583 
L 45.444623 53.141583 
L 45.444623 52.337318 
L 46.923177 52.337318 
L 46.923177 51.935185 
L 47.107996 51.935185 
L 47.107996 51.533053 
L 48.894581 51.533053 
L 48.894581 51.13092 
L 50.065103 51.13092 
L 50.065103 50.728788 
L 51.851689 50.728788 
L 51.851689 50.326655 
L 54.315945 50.326655 
L 54.315945 49.924523 
L 71.812164 49.924523 
L 71.812164 49.52239 
L 80.929911 49.52239 
L 80.929911 49.120258 
L 128.05881 49.120258 
L 128.05881 48.718125 
L 286.756906 48.718125 
L 286.880118 48.718125 
L 390.810121 48.718125 
L 390.933334 48.718125 
L 392.473494 48.718125 
L 392.596707 48.718125 
L 498.374902 48.718125 
L 498.498114 48.718125 
L 547.721631 48.718125 
L 547.844844 48.718125 
L 712.70358 48.718125 
L 713.38125 48.718125 
" clip-path="url(#p2995d69135)" style="fill: none; stroke: #808000; stroke-width: 2; stroke-linecap: square"/>
   </g>
   <g id="line2d_23">
    <path d="M 43.78125 576.718125 
L 43.78125 576.340713 
L 43.843348 207.986174 
L 43.843348 184.20919 
L 43.843348 168.357868 
L 43.843348 161.187031 
L 43.843348 153.638783 
L 43.843348 144.580884 
L 43.843348 137.78746 
L 43.843348 134.768161 
L 43.843348 132.503686 
L 43.843348 131.371449 
L 43.843348 130.616624 
L 43.843348 127.219912 
L 43.843348 124.578025 
L 43.843348 123.068375 
L 43.843348 120.803901 
L 43.843348 120.049076 
L 43.843348 118.539426 
L 43.843348 118.162013 
L 43.843348 117.029776 
L 43.843348 115.520126 
L 43.843348 115.142714 
L 43.843348 114.010477 
L 43.843348 113.633064 
L 43.843348 112.123414 
L 43.843348 111.746002 
L 43.843348 110.991177 
L 43.843348 109.85894 
L 43.843348 107.971878 
L 43.843348 106.462228 
L 43.843348 105.329991 
L 43.843348 104.952578 
L 43.843348 104.197753 
L 43.843348 103.065516 
L 43.843348 101.933279 
L 43.843348 100.801041 
L 43.843348 100.046216 
L 43.843348 98.159154 
L 43.843348 97.781742 
L 43.843348 96.272092 
L 43.843348 93.630205 
L 43.843348 92.87538 
L 43.843348 90.610906 
L 43.843348 89.856081 
L 43.843348 88.723843 
L 43.843348 87.591606 
L 43.843348 87.214194 
L 43.843348 86.459369 
L 43.843348 82.685244 
L 43.843348 81.930419 
L 43.843348 81.553007 
L 43.843348 80.798182 
L 43.843348 55.888961 
L 43.905445 55.888961 
L 43.905445 52.869662 
L 43.967543 52.869662 
L 43.967543 52.114837 
L 44.029641 52.114837 
L 44.029641 50.227775 
L 44.215934 50.227775 
L 44.215934 49.47295 
L 44.899009 49.47295 
L 44.899009 49.095537 
L 45.209498 49.095537 
L 45.209498 48.718125 
L 495.41816 48.718125 
L 495.542355 48.718125 
L 712.0151 48.718125 
L 713.38125 48.718125 
" clip-path="url(#p2995d69135)" style="fill: none; stroke: #00ffff; stroke-width: 2; stroke-linecap: square"/>
   </g>
   <g id="line2d_24">
    <path d="M 43.78125 576.718125 
L 713.38125 48.718125 
" clip-path="url(#p2995d69135)" style="fill: none; stroke-dasharray: 7.4,3.2; stroke-dashoffset: 0; stroke: #000000; stroke-width: 2"/>
   </g>
   <g id="patch_3">
    <path d="M 43.78125 576.718125 
L 43.78125 22.318125 
" style="fill: none; stroke: #000000; stroke-width: 0.8; stroke-linejoin: miter; stroke-linecap: square"/>
   </g>
   <g id="patch_4">
    <path d="M 713.38125 576.718125 
L 713.38125 22.318125 
" style="fill: none; stroke: #000000; stroke-width: 0.8; stroke-linejoin: miter; stroke-linecap: square"/>
   </g>
   <g id="patch_5">
    <path d="M 43.78125 576.718125 
L 713.38125 576.718125 
" style="fill: none; stroke: #000000; stroke-width: 0.8; stroke-linejoin: miter; stroke-linecap: square"/>
   </g>
   <g id="patch_6">
    <path d="M 43.78125 22.318125 
L 713.38125 22.318125 
" style="fill: none; stroke: #000000; stroke-width: 0.8; stroke-linejoin: miter; stroke-linecap: square"/>
   </g>
   <g id="text_15">
    <!-- Receiver Operating Characteristic (ROC) Curves -->
    <g transform="translate(234.673125 16.318125) scale(0.12 -0.12)">
     <defs>
      <path id="DejaVuSans-63" d="M 3122 3366 
L 3122 2828 
Q 2878 2963 2633 3030 
Q 2388 3097 2138 3097 
Q 1578 3097 1268 2742 
Q 959 2388 959 1747 
Q 959 1106 1268 751 
Q 1578 397 2138 397 
Q 2388 397 2633 464 
Q 2878 531 3122 666 
L 3122 134 
Q 2881 22 2623 -34 
Q 2366 -91 2075 -91 
Q 1284 -91 818 406 
Q 353 903 353 1747 
Q 353 2603 823 3093 
Q 1294 3584 2113 3584 
Q 2378 3584 2631 3529 
Q 2884 3475 3122 3366 
z
" transform="scale(0.015625)"/>
      <path id="DejaVuSans-4f" d="M 2522 4238 
Q 1834 4238 1429 3725 
Q 1025 3213 1025 2328 
Q 1025 1447 1429 934 
Q 1834 422 2522 422 
Q 3209 422 3611 934 
Q 4013 1447 4013 2328 
Q 4013 3213 3611 3725 
Q 3209 4238 2522 4238 
z
M 2522 4750 
Q 3503 4750 4090 4092 
Q 4678 3434 4678 2328 
Q 4678 1225 4090 567 
Q 3503 -91 2522 -91 
Q 1538 -91 948 565 
Q 359 1222 359 2328 
Q 359 3434 948 4092 
Q 1538 4750 2522 4750 
z
" transform="scale(0.015625)"/>
      <path id="DejaVuSans-70" d="M 1159 525 
L 1159 -1331 
L 581 -1331 
L 581 3500 
L 1159 3500 
L 1159 2969 
Q 1341 3281 1617 3432 
Q 1894 3584 2278 3584 
Q 2916 3584 3314 3078 
Q 3713 2572 3713 1747 
Q 3713 922 3314 415 
Q 2916 -91 2278 -91 
Q 1894 -91 1617 61 
Q 1341 213 1159 525 
z
M 3116 1747 
Q 3116 2381 2855 2742 
Q 2594 3103 2138 3103 
Q 1681 3103 1420 2742 
Q 1159 2381 1159 1747 
Q 1159 1113 1420 752 
Q 1681 391 2138 391 
Q 2594 391 2855 752 
Q 3116 1113 3116 1747 
z
" transform="scale(0.015625)"/>
      <path id="DejaVuSans-6e" d="M 3513 2113 
L 3513 0 
L 2938 0 
L 2938 2094 
Q 2938 2591 2744 2837 
Q 2550 3084 2163 3084 
Q 1697 3084 1428 2787 
Q 1159 2491 1159 1978 
L 1159 0 
L 581 0 
L 581 3500 
L 1159 3500 
L 1159 2956 
Q 1366 3272 1645 3428 
Q 1925 3584 2291 3584 
Q 2894 3584 3203 3211 
Q 3513 2838 3513 2113 
z
" transform="scale(0.015625)"/>
      <path id="DejaVuSans-67" d="M 2906 1791 
Q 2906 2416 2648 2759 
Q 2391 3103 1925 3103 
Q 1463 3103 1205 2759 
Q 947 2416 947 1791 
Q 947 1169 1205 825 
Q 1463 481 1925 481 
Q 2391 481 2648 825 
Q 2906 1169 2906 1791 
z
M 3481 434 
Q 3481 -459 3084 -895 
Q 2688 -1331 1869 -1331 
Q 1566 -1331 1297 -1286 
Q 1028 -1241 775 -1147 
L 775 -588 
Q 1028 -725 1275 -790 
Q 1522 -856 1778 -856 
Q 2344 -856 2625 -561 
Q 2906 -266 2906 331 
L 2906 616 
Q 2728 306 2450 153 
Q 2172 0 1784 0 
Q 1141 0 747 490 
Q 353 981 353 1791 
Q 353 2603 747 3093 
Q 1141 3584 1784 3584 
Q 2172 3584 2450 3431 
Q 2728 3278 2906 2969 
L 2906 3500 
L 3481 3500 
L 3481 434 
z
" transform="scale(0.015625)"/>
      <path id="DejaVuSans-43" d="M 4122 4306 
L 4122 3641 
Q 3803 3938 3442 4084 
Q 3081 4231 2675 4231 
Q 1875 4231 1450 3742 
Q 1025 3253 1025 2328 
Q 1025 1406 1450 917 
Q 1875 428 2675 428 
Q 3081 428 3442 575 
Q 3803 722 4122 1019 
L 4122 359 
Q 3791 134 3420 21 
Q 3050 -91 2638 -91 
Q 1578 -91 968 557 
Q 359 1206 359 2328 
Q 359 3453 968 4101 
Q 1578 4750 2638 4750 
Q 3056 4750 3426 4639 
Q 3797 4528 4122 4306 
z
" transform="scale(0.015625)"/>
      <path id="DejaVuSans-68" d="M 3513 2113 
L 3513 0 
L 2938 0 
L 2938 2094 
Q 2938 2591 2744 2837 
Q 2550 3084 2163 3084 
Q 1697 3084 1428 2787 
Q 1159 2491 1159 1978 
L 1159 0 
L 581 0 
L 581 4863 
L 1159 4863 
L 1159 2956 
Q 1366 3272 1645 3428 
Q 1925 3584 2291 3584 
Q 2894 3584 3203 3211 
Q 3513 2838 3513 2113 
z
" transform="scale(0.015625)"/>
      <path id="DejaVuSans-28" d="M 1984 4856 
Q 1566 4138 1362 3434 
Q 1159 2731 1159 2009 
Q 1159 1288 1364 580 
Q 1569 -128 1984 -844 
L 1484 -844 
Q 1016 -109 783 600 
Q 550 1309 550 2009 
Q 550 2706 781 3412 
Q 1013 4119 1484 4856 
L 1984 4856 
z
" transform="scale(0.015625)"/>
      <path id="DejaVuSans-29" d="M 513 4856 
L 1013 4856 
Q 1481 4119 1714 3412 
Q 1947 2706 1947 2009 
Q 1947 1309 1714 600 
Q 1481 -109 1013 -844 
L 513 -844 
Q 928 -128 1133 580 
Q 1338 1288 1338 2009 
Q 1338 2731 1133 3434 
Q 928 4138 513 4856 
z
" transform="scale(0.015625)"/>
     </defs>
     <use xlink:href="#DejaVuSans-52"/>
     <use xlink:href="#DejaVuSans-65" x="64.982422"/>
     <use xlink:href="#DejaVuSans-63" x="126.505859"/>
     <use xlink:href="#DejaVuSans-65" x="181.486328"/>
     <use xlink:href="#DejaVuSans-69" x="243.009766"/>
     <use xlink:href="#DejaVuSans-76" x="270.792969"/>
     <use xlink:href="#DejaVuSans-65" x="329.972656"/>
     <use xlink:href="#DejaVuSans-72" x="391.496094"/>
     <use xlink:href="#DejaVuSans-20" x="432.609375"/>
     <use xlink:href="#DejaVuSans-4f" x="464.396484"/>
     <use xlink:href="#DejaVuSans-70" x="543.107422"/>
     <use xlink:href="#DejaVuSans-65" x="606.583984"/>
     <use xlink:href="#DejaVuSans-72" x="668.107422"/>
     <use xlink:href="#DejaVuSans-61" x="709.220703"/>
     <use xlink:href="#DejaVuSans-74" x="770.5"/>
     <use xlink:href="#DejaVuSans-69" x="809.708984"/>
     <use xlink:href="#DejaVuSans-6e" x="837.492188"/>
     <use xlink:href="#DejaVuSans-67" x="900.871094"/>
     <use xlink:href="#DejaVuSans-20" x="964.347656"/>
     <use xlink:href="#DejaVuSans-43" x="996.134766"/>
     <use xlink:href="#DejaVuSans-68" x="1065.958984"/>
     <use xlink:href="#DejaVuSans-61" x="1129.337891"/>
     <use xlink:href="#DejaVuSans-72" x="1190.617188"/>
     <use xlink:href="#DejaVuSans-61" x="1231.730469"/>
     <use xlink:href="#DejaVuSans-63" x="1293.009766"/>
     <use xlink:href="#DejaVuSans-74" x="1347.990234"/>
     <use xlink:href="#DejaVuSans-65" x="1387.199219"/>
     <use xlink:href="#DejaVuSans-72" x="1448.722656"/>
     <use xlink:href="#DejaVuSans-69" x="1489.835938"/>
     <use xlink:href="#DejaVuSans-73" x="1517.619141"/>
     <use xlink:href="#DejaVuSans-74" x="1569.71875"/>
     <use xlink:href="#DejaVuSans-69" x="1608.927734"/>
     <use xlink:href="#DejaVuSans-63" x="1636.710938"/>
     <use xlink:href="#DejaVuSans-20" x="1691.691406"/>
     <use xlink:href="#DejaVuSans-28" x="1723.478516"/>
     <use xlink:href="#DejaVuSans-52" x="1762.492188"/>
     <use xlink:href="#DejaVuSans-4f" x="1831.974609"/>
     <use xlink:href="#DejaVuSans-43" x="1910.685547"/>
     <use xlink:href="#DejaVuSans-29" x="1980.509766"/>
     <use xlink:href="#DejaVuSans-20" x="2019.523438"/>
     <use xlink:href="#DejaVuSans-43" x="2051.310547"/>
     <use xlink:href="#DejaVuSans-75" x="2121.134766"/>
     <use xlink:href="#DejaVuSans-72" x="2184.513672"/>
     <use xlink:href="#DejaVuSans-76" x="2225.626953"/>
     <use xlink:href="#DejaVuSans-65" x="2284.806641"/>
     <use xlink:href="#DejaVuSans-73" x="2346.330078"/>
    </g>
   </g>
   <g id="legend_1">
    <g id="patch_7">
     <path d="M 530.95425 572.553125 
L 707.55025 572.553125 
Q 709.21625 572.553125 709.21625 570.887125 
L 709.21625 437.224466 
Q 709.21625 435.558466 707.55025 435.558466 
L 530.95425 435.558466 
Q 529.28825 435.558466 529.28825 437.224466 
L 529.28825 570.887125 
Q 529.28825 572.553125 530.95425 572.553125 
z
" style="fill: #ffffff; opacity: 0.8; stroke: #cccccc; stroke-linejoin: miter"/>
    </g>
    <g id="line2d_25">
     <path d="M 532.62025 442.304464 
L 540.95025 442.304464 
L 549.28025 442.304464 
" style="fill: none; stroke: #00ffff; stroke-width: 2; stroke-linecap: square"/>
    </g>
    <g id="text_16">
     <!-- ROC curve of class 0 (area = 1.00) -->
     <g transform="translate(555.94425 445.219964) scale(0.0833 -0.0833)">
      <defs>
       <path id="DejaVuSans-66" d="M 2375 4863 
L 2375 4384 
L 1825 4384 
Q 1516 4384 1395 4259 
Q 1275 4134 1275 3809 
L 1275 3500 
L 2222 3500 
L 2222 3053 
L 1275 3053 
L 1275 0 
L 697 0 
L 697 3053 
L 147 3053 
L 147 3500 
L 697 3500 
L 697 3744 
Q 697 4328 969 4595 
Q 1241 4863 1831 4863 
L 2375 4863 
z
" transform="scale(0.015625)"/>
       <path id="DejaVuSans-3d" d="M 678 2906 
L 4684 2906 
L 4684 2381 
L 678 2381 
L 678 2906 
z
M 678 1631 
L 4684 1631 
L 4684 1100 
L 678 1100 
L 678 1631 
z
" transform="scale(0.015625)"/>
      </defs>
      <use xlink:href="#DejaVuSans-52"/>
      <use xlink:href="#DejaVuSans-4f" x="69.482422"/>
      <use xlink:href="#DejaVuSans-43" x="148.193359"/>
      <use xlink:href="#DejaVuSans-20" x="218.017578"/>
      <use xlink:href="#DejaVuSans-63" x="249.804688"/>
      <use xlink:href="#DejaVuSans-75" x="304.785156"/>
      <use xlink:href="#DejaVuSans-72" x="368.164062"/>
      <use xlink:href="#DejaVuSans-76" x="409.277344"/>
      <use xlink:href="#DejaVuSans-65" x="468.457031"/>
      <use xlink:href="#DejaVuSans-20" x="529.980469"/>
      <use xlink:href="#DejaVuSans-6f" x="561.767578"/>
      <use xlink:href="#DejaVuSans-66" x="622.949219"/>
      <use xlink:href="#DejaVuSans-20" x="658.154297"/>
      <use xlink:href="#DejaVuSans-63" x="689.941406"/>
      <use xlink:href="#DejaVuSans-6c" x="744.921875"/>
      <use xlink:href="#DejaVuSans-61" x="772.705078"/>
      <use xlink:href="#DejaVuSans-73" x="833.984375"/>
      <use xlink:href="#DejaVuSans-73" x="886.083984"/>
      <use xlink:href="#DejaVuSans-20" x="938.183594"/>
      <use xlink:href="#DejaVuSans-30" x="969.970703"/>
      <use xlink:href="#DejaVuSans-20" x="1033.59375"/>
      <use xlink:href="#DejaVuSans-28" x="1065.380859"/>
      <use xlink:href="#DejaVuSans-61" x="1104.394531"/>
      <use xlink:href="#DejaVuSans-72" x="1165.673828"/>
      <use xlink:href="#DejaVuSans-65" x="1204.537109"/>
      <use xlink:href="#DejaVuSans-61" x="1266.060547"/>
      <use xlink:href="#DejaVuSans-20" x="1327.339844"/>
      <use xlink:href="#DejaVuSans-3d" x="1359.126953"/>
      <use xlink:href="#DejaVuSans-20" x="1442.916016"/>
      <use xlink:href="#DejaVuSans-31" x="1474.703125"/>
      <use xlink:href="#DejaVuSans-2e" x="1538.326172"/>
      <use xlink:href="#DejaVuSans-30" x="1570.113281"/>
      <use xlink:href="#DejaVuSans-30" x="1633.736328"/>
      <use xlink:href="#DejaVuSans-29" x="1697.359375"/>
     </g>
    </g>
    <g id="line2d_26">
     <path d="M 532.62025 454.531342 
L 540.95025 454.531342 
L 549.28025 454.531342 
" style="fill: none; stroke: #ff8c00; stroke-width: 2; stroke-linecap: square"/>
    </g>
    <g id="text_17">
     <!-- ROC curve of class 1 (area = 1.00) -->
     <g transform="translate(555.94425 457.446842) scale(0.0833 -0.0833)">
      <use xlink:href="#DejaVuSans-52"/>
      <use xlink:href="#DejaVuSans-4f" x="69.482422"/>
      <use xlink:href="#DejaVuSans-43" x="148.193359"/>
      <use xlink:href="#DejaVuSans-20" x="218.017578"/>
      <use xlink:href="#DejaVuSans-63" x="249.804688"/>
      <use xlink:href="#DejaVuSans-75" x="304.785156"/>
      <use xlink:href="#DejaVuSans-72" x="368.164062"/>
      <use xlink:href="#DejaVuSans-76" x="409.277344"/>
      <use xlink:href="#DejaVuSans-65" x="468.457031"/>
      <use xlink:href="#DejaVuSans-20" x="529.980469"/>
      <use xlink:href="#DejaVuSans-6f" x="561.767578"/>
      <use xlink:href="#DejaVuSans-66" x="622.949219"/>
      <use xlink:href="#DejaVuSans-20" x="658.154297"/>
      <use xlink:href="#DejaVuSans-63" x="689.941406"/>
      <use xlink:href="#DejaVuSans-6c" x="744.921875"/>
      <use xlink:href="#DejaVuSans-61" x="772.705078"/>
      <use xlink:href="#DejaVuSans-73" x="833.984375"/>
      <use xlink:href="#DejaVuSans-73" x="886.083984"/>
      <use xlink:href="#DejaVuSans-20" x="938.183594"/>
      <use xlink:href="#DejaVuSans-31" x="969.970703"/>
      <use xlink:href="#DejaVuSans-20" x="1033.59375"/>
      <use xlink:href="#DejaVuSans-28" x="1065.380859"/>
      <use xlink:href="#DejaVuSans-61" x="1104.394531"/>
      <use xlink:href="#DejaVuSans-72" x="1165.673828"/>
      <use xlink:href="#DejaVuSans-65" x="1204.537109"/>
      <use xlink:href="#DejaVuSans-61" x="1266.060547"/>
      <use xlink:href="#DejaVuSans-20" x="1327.339844"/>
      <use xlink:href="#DejaVuSans-3d" x="1359.126953"/>
      <use xlink:href="#DejaVuSans-20" x="1442.916016"/>
      <use xlink:href="#DejaVuSans-31" x="1474.703125"/>
      <use xlink:href="#DejaVuSans-2e" x="1538.326172"/>
      <use xlink:href="#DejaVuSans-30" x="1570.113281"/>
      <use xlink:href="#DejaVuSans-30" x="1633.736328"/>
      <use xlink:href="#DejaVuSans-29" x="1697.359375"/>
     </g>
    </g>
    <g id="line2d_27">
     <path d="M 532.62025 466.75822 
L 540.95025 466.75822 
L 549.28025 466.75822 
" style="fill: none; stroke: #6495ed; stroke-width: 2; stroke-linecap: square"/>
    </g>
    <g id="text_18">
     <!-- ROC curve of class 2 (area = 1.00) -->
     <g transform="translate(555.94425 469.67372) scale(0.0833 -0.0833)">
      <use xlink:href="#DejaVuSans-52"/>
      <use xlink:href="#DejaVuSans-4f" x="69.482422"/>
      <use xlink:href="#DejaVuSans-43" x="148.193359"/>
      <use xlink:href="#DejaVuSans-20" x="218.017578"/>
      <use xlink:href="#DejaVuSans-63" x="249.804688"/>
      <use xlink:href="#DejaVuSans-75" x="304.785156"/>
      <use xlink:href="#DejaVuSans-72" x="368.164062"/>
      <use xlink:href="#DejaVuSans-76" x="409.277344"/>
      <use xlink:href="#DejaVuSans-65" x="468.457031"/>
      <use xlink:href="#DejaVuSans-20" x="529.980469"/>
      <use xlink:href="#DejaVuSans-6f" x="561.767578"/>
      <use xlink:href="#DejaVuSans-66" x="622.949219"/>
      <use xlink:href="#DejaVuSans-20" x="658.154297"/>
      <use xlink:href="#DejaVuSans-63" x="689.941406"/>
      <use xlink:href="#DejaVuSans-6c" x="744.921875"/>
      <use xlink:href="#DejaVuSans-61" x="772.705078"/>
      <use xlink:href="#DejaVuSans-73" x="833.984375"/>
      <use xlink:href="#DejaVuSans-73" x="886.083984"/>
      <use xlink:href="#DejaVuSans-20" x="938.183594"/>
      <use xlink:href="#DejaVuSans-32" x="969.970703"/>
      <use xlink:href="#DejaVuSans-20" x="1033.59375"/>
      <use xlink:href="#DejaVuSans-28" x="1065.380859"/>
      <use xlink:href="#DejaVuSans-61" x="1104.394531"/>
      <use xlink:href="#DejaVuSans-72" x="1165.673828"/>
      <use xlink:href="#DejaVuSans-65" x="1204.537109"/>
      <use xlink:href="#DejaVuSans-61" x="1266.060547"/>
      <use xlink:href="#DejaVuSans-20" x="1327.339844"/>
      <use xlink:href="#DejaVuSans-3d" x="1359.126953"/>
      <use xlink:href="#DejaVuSans-20" x="1442.916016"/>
      <use xlink:href="#DejaVuSans-31" x="1474.703125"/>
      <use xlink:href="#DejaVuSans-2e" x="1538.326172"/>
      <use xlink:href="#DejaVuSans-30" x="1570.113281"/>
      <use xlink:href="#DejaVuSans-30" x="1633.736328"/>
      <use xlink:href="#DejaVuSans-29" x="1697.359375"/>
     </g>
    </g>
    <g id="line2d_28">
     <path d="M 532.62025 478.985098 
L 540.95025 478.985098 
L 549.28025 478.985098 
" style="fill: none; stroke: #008000; stroke-width: 2; stroke-linecap: square"/>
    </g>
    <g id="text_19">
     <!-- ROC curve of class 3 (area = 1.00) -->
     <g transform="translate(555.94425 481.900598) scale(0.0833 -0.0833)">
      <defs>
       <path id="DejaVuSans-33" d="M 2597 2516 
Q 3050 2419 3304 2112 
Q 3559 1806 3559 1356 
Q 3559 666 3084 287 
Q 2609 -91 1734 -91 
Q 1441 -91 1130 -33 
Q 819 25 488 141 
L 488 750 
Q 750 597 1062 519 
Q 1375 441 1716 441 
Q 2309 441 2620 675 
Q 2931 909 2931 1356 
Q 2931 1769 2642 2001 
Q 2353 2234 1838 2234 
L 1294 2234 
L 1294 2753 
L 1863 2753 
Q 2328 2753 2575 2939 
Q 2822 3125 2822 3475 
Q 2822 3834 2567 4026 
Q 2313 4219 1838 4219 
Q 1578 4219 1281 4162 
Q 984 4106 628 3988 
L 628 4550 
Q 988 4650 1302 4700 
Q 1616 4750 1894 4750 
Q 2613 4750 3031 4423 
Q 3450 4097 3450 3541 
Q 3450 3153 3228 2886 
Q 3006 2619 2597 2516 
z
" transform="scale(0.015625)"/>
      </defs>
      <use xlink:href="#DejaVuSans-52"/>
      <use xlink:href="#DejaVuSans-4f" x="69.482422"/>
      <use xlink:href="#DejaVuSans-43" x="148.193359"/>
      <use xlink:href="#DejaVuSans-20" x="218.017578"/>
      <use xlink:href="#DejaVuSans-63" x="249.804688"/>
      <use xlink:href="#DejaVuSans-75" x="304.785156"/>
      <use xlink:href="#DejaVuSans-72" x="368.164062"/>
      <use xlink:href="#DejaVuSans-76" x="409.277344"/>
      <use xlink:href="#DejaVuSans-65" x="468.457031"/>
      <use xlink:href="#DejaVuSans-20" x="529.980469"/>
      <use xlink:href="#DejaVuSans-6f" x="561.767578"/>
      <use xlink:href="#DejaVuSans-66" x="622.949219"/>
      <use xlink:href="#DejaVuSans-20" x="658.154297"/>
      <use xlink:href="#DejaVuSans-63" x="689.941406"/>
      <use xlink:href="#DejaVuSans-6c" x="744.921875"/>
      <use xlink:href="#DejaVuSans-61" x="772.705078"/>
      <use xlink:href="#DejaVuSans-73" x="833.984375"/>
      <use xlink:href="#DejaVuSans-73" x="886.083984"/>
      <use xlink:href="#DejaVuSans-20" x="938.183594"/>
      <use xlink:href="#DejaVuSans-33" x="969.970703"/>
      <use xlink:href="#DejaVuSans-20" x="1033.59375"/>
      <use xlink:href="#DejaVuSans-28" x="1065.380859"/>
      <use xlink:href="#DejaVuSans-61" x="1104.394531"/>
      <use xlink:href="#DejaVuSans-72" x="1165.673828"/>
      <use xlink:href="#DejaVuSans-65" x="1204.537109"/>
      <use xlink:href="#DejaVuSans-61" x="1266.060547"/>
      <use xlink:href="#DejaVuSans-20" x="1327.339844"/>
      <use xlink:href="#DejaVuSans-3d" x="1359.126953"/>
      <use xlink:href="#DejaVuSans-20" x="1442.916016"/>
      <use xlink:href="#DejaVuSans-31" x="1474.703125"/>
      <use xlink:href="#DejaVuSans-2e" x="1538.326172"/>
      <use xlink:href="#DejaVuSans-30" x="1570.113281"/>
      <use xlink:href="#DejaVuSans-30" x="1633.736328"/>
      <use xlink:href="#DejaVuSans-29" x="1697.359375"/>
     </g>
    </g>
    <g id="line2d_29">
     <path d="M 532.62025 491.211977 
L 540.95025 491.211977 
L 549.28025 491.211977 
" style="fill: none; stroke: #ff0000; stroke-width: 2; stroke-linecap: square"/>
    </g>
    <g id="text_20">
     <!-- ROC curve of class 4 (area = 1.00) -->
     <g transform="translate(555.94425 494.127477) scale(0.0833 -0.0833)">
      <use xlink:href="#DejaVuSans-52"/>
      <use xlink:href="#DejaVuSans-4f" x="69.482422"/>
      <use xlink:href="#DejaVuSans-43" x="148.193359"/>
      <use xlink:href="#DejaVuSans-20" x="218.017578"/>
      <use xlink:href="#DejaVuSans-63" x="249.804688"/>
      <use xlink:href="#DejaVuSans-75" x="304.785156"/>
      <use xlink:href="#DejaVuSans-72" x="368.164062"/>
      <use xlink:href="#DejaVuSans-76" x="409.277344"/>
      <use xlink:href="#DejaVuSans-65" x="468.457031"/>
      <use xlink:href="#DejaVuSans-20" x="529.980469"/>
      <use xlink:href="#DejaVuSans-6f" x="561.767578"/>
      <use xlink:href="#DejaVuSans-66" x="622.949219"/>
      <use xlink:href="#DejaVuSans-20" x="658.154297"/>
      <use xlink:href="#DejaVuSans-63" x="689.941406"/>
      <use xlink:href="#DejaVuSans-6c" x="744.921875"/>
      <use xlink:href="#DejaVuSans-61" x="772.705078"/>
      <use xlink:href="#DejaVuSans-73" x="833.984375"/>
      <use xlink:href="#DejaVuSans-73" x="886.083984"/>
      <use xlink:href="#DejaVuSans-20" x="938.183594"/>
      <use xlink:href="#DejaVuSans-34" x="969.970703"/>
      <use xlink:href="#DejaVuSans-20" x="1033.59375"/>
      <use xlink:href="#DejaVuSans-28" x="1065.380859"/>
      <use xlink:href="#DejaVuSans-61" x="1104.394531"/>
      <use xlink:href="#DejaVuSans-72" x="1165.673828"/>
      <use xlink:href="#DejaVuSans-65" x="1204.537109"/>
      <use xlink:href="#DejaVuSans-61" x="1266.060547"/>
      <use xlink:href="#DejaVuSans-20" x="1327.339844"/>
      <use xlink:href="#DejaVuSans-3d" x="1359.126953"/>
      <use xlink:href="#DejaVuSans-20" x="1442.916016"/>
      <use xlink:href="#DejaVuSans-31" x="1474.703125"/>
      <use xlink:href="#DejaVuSans-2e" x="1538.326172"/>
      <use xlink:href="#DejaVuSans-30" x="1570.113281"/>
      <use xlink:href="#DejaVuSans-30" x="1633.736328"/>
      <use xlink:href="#DejaVuSans-29" x="1697.359375"/>
     </g>
    </g>
    <g id="line2d_30">
     <path d="M 532.62025 503.438855 
L 540.95025 503.438855 
L 549.28025 503.438855 
" style="fill: none; stroke: #800080; stroke-width: 2; stroke-linecap: square"/>
    </g>
    <g id="text_21">
     <!-- ROC curve of class 5 (area = 1.00) -->
     <g transform="translate(555.94425 506.354355) scale(0.0833 -0.0833)">
      <defs>
       <path id="DejaVuSans-35" d="M 691 4666 
L 3169 4666 
L 3169 4134 
L 1269 4134 
L 1269 2991 
Q 1406 3038 1543 3061 
Q 1681 3084 1819 3084 
Q 2600 3084 3056 2656 
Q 3513 2228 3513 1497 
Q 3513 744 3044 326 
Q 2575 -91 1722 -91 
Q 1428 -91 1123 -41 
Q 819 9 494 109 
L 494 744 
Q 775 591 1075 516 
Q 1375 441 1709 441 
Q 2250 441 2565 725 
Q 2881 1009 2881 1497 
Q 2881 1984 2565 2268 
Q 2250 2553 1709 2553 
Q 1456 2553 1204 2497 
Q 953 2441 691 2322 
L 691 4666 
z
" transform="scale(0.015625)"/>
      </defs>
      <use xlink:href="#DejaVuSans-52"/>
      <use xlink:href="#DejaVuSans-4f" x="69.482422"/>
      <use xlink:href="#DejaVuSans-43" x="148.193359"/>
      <use xlink:href="#DejaVuSans-20" x="218.017578"/>
      <use xlink:href="#DejaVuSans-63" x="249.804688"/>
      <use xlink:href="#DejaVuSans-75" x="304.785156"/>
      <use xlink:href="#DejaVuSans-72" x="368.164062"/>
      <use xlink:href="#DejaVuSans-76" x="409.277344"/>
      <use xlink:href="#DejaVuSans-65" x="468.457031"/>
      <use xlink:href="#DejaVuSans-20" x="529.980469"/>
      <use xlink:href="#DejaVuSans-6f" x="561.767578"/>
      <use xlink:href="#DejaVuSans-66" x="622.949219"/>
      <use xlink:href="#DejaVuSans-20" x="658.154297"/>
      <use xlink:href="#DejaVuSans-63" x="689.941406"/>
      <use xlink:href="#DejaVuSans-6c" x="744.921875"/>
      <use xlink:href="#DejaVuSans-61" x="772.705078"/>
      <use xlink:href="#DejaVuSans-73" x="833.984375"/>
      <use xlink:href="#DejaVuSans-73" x="886.083984"/>
      <use xlink:href="#DejaVuSans-20" x="938.183594"/>
      <use xlink:href="#DejaVuSans-35" x="969.970703"/>
      <use xlink:href="#DejaVuSans-20" x="1033.59375"/>
      <use xlink:href="#DejaVuSans-28" x="1065.380859"/>
      <use xlink:href="#DejaVuSans-61" x="1104.394531"/>
      <use xlink:href="#DejaVuSans-72" x="1165.673828"/>
      <use xlink:href="#DejaVuSans-65" x="1204.537109"/>
      <use xlink:href="#DejaVuSans-61" x="1266.060547"/>
      <use xlink:href="#DejaVuSans-20" x="1327.339844"/>
      <use xlink:href="#DejaVuSans-3d" x="1359.126953"/>
      <use xlink:href="#DejaVuSans-20" x="1442.916016"/>
      <use xlink:href="#DejaVuSans-31" x="1474.703125"/>
      <use xlink:href="#DejaVuSans-2e" x="1538.326172"/>
      <use xlink:href="#DejaVuSans-30" x="1570.113281"/>
      <use xlink:href="#DejaVuSans-30" x="1633.736328"/>
      <use xlink:href="#DejaVuSans-29" x="1697.359375"/>
     </g>
    </g>
    <g id="line2d_31">
     <path d="M 532.62025 515.665733 
L 540.95025 515.665733 
L 549.28025 515.665733 
" style="fill: none; stroke: #a52a2a; stroke-width: 2; stroke-linecap: square"/>
    </g>
    <g id="text_22">
     <!-- ROC curve of class 6 (area = 1.00) -->
     <g transform="translate(555.94425 518.581233) scale(0.0833 -0.0833)">
      <use xlink:href="#DejaVuSans-52"/>
      <use xlink:href="#DejaVuSans-4f" x="69.482422"/>
      <use xlink:href="#DejaVuSans-43" x="148.193359"/>
      <use xlink:href="#DejaVuSans-20" x="218.017578"/>
      <use xlink:href="#DejaVuSans-63" x="249.804688"/>
      <use xlink:href="#DejaVuSans-75" x="304.785156"/>
      <use xlink:href="#DejaVuSans-72" x="368.164062"/>
      <use xlink:href="#DejaVuSans-76" x="409.277344"/>
      <use xlink:href="#DejaVuSans-65" x="468.457031"/>
      <use xlink:href="#DejaVuSans-20" x="529.980469"/>
      <use xlink:href="#DejaVuSans-6f" x="561.767578"/>
      <use xlink:href="#DejaVuSans-66" x="622.949219"/>
      <use xlink:href="#DejaVuSans-20" x="658.154297"/>
      <use xlink:href="#DejaVuSans-63" x="689.941406"/>
      <use xlink:href="#DejaVuSans-6c" x="744.921875"/>
      <use xlink:href="#DejaVuSans-61" x="772.705078"/>
      <use xlink:href="#DejaVuSans-73" x="833.984375"/>
      <use xlink:href="#DejaVuSans-73" x="886.083984"/>
      <use xlink:href="#DejaVuSans-20" x="938.183594"/>
      <use xlink:href="#DejaVuSans-36" x="969.970703"/>
      <use xlink:href="#DejaVuSans-20" x="1033.59375"/>
      <use xlink:href="#DejaVuSans-28" x="1065.380859"/>
      <use xlink:href="#DejaVuSans-61" x="1104.394531"/>
      <use xlink:href="#DejaVuSans-72" x="1165.673828"/>
      <use xlink:href="#DejaVuSans-65" x="1204.537109"/>
      <use xlink:href="#DejaVuSans-61" x="1266.060547"/>
      <use xlink:href="#DejaVuSans-20" x="1327.339844"/>
      <use xlink:href="#DejaVuSans-3d" x="1359.126953"/>
      <use xlink:href="#DejaVuSans-20" x="1442.916016"/>
      <use xlink:href="#DejaVuSans-31" x="1474.703125"/>
      <use xlink:href="#DejaVuSans-2e" x="1538.326172"/>
      <use xlink:href="#DejaVuSans-30" x="1570.113281"/>
      <use xlink:href="#DejaVuSans-30" x="1633.736328"/>
      <use xlink:href="#DejaVuSans-29" x="1697.359375"/>
     </g>
    </g>
    <g id="line2d_32">
     <path d="M 532.62025 527.892611 
L 540.95025 527.892611 
L 549.28025 527.892611 
" style="fill: none; stroke: #ffc0cb; stroke-width: 2; stroke-linecap: square"/>
    </g>
    <g id="text_23">
     <!-- ROC curve of class 7 (area = 1.00) -->
     <g transform="translate(555.94425 530.808111) scale(0.0833 -0.0833)">
      <defs>
       <path id="DejaVuSans-37" d="M 525 4666 
L 3525 4666 
L 3525 4397 
L 1831 0 
L 1172 0 
L 2766 4134 
L 525 4134 
L 525 4666 
z
" transform="scale(0.015625)"/>
      </defs>
      <use xlink:href="#DejaVuSans-52"/>
      <use xlink:href="#DejaVuSans-4f" x="69.482422"/>
      <use xlink:href="#DejaVuSans-43" x="148.193359"/>
      <use xlink:href="#DejaVuSans-20" x="218.017578"/>
      <use xlink:href="#DejaVuSans-63" x="249.804688"/>
      <use xlink:href="#DejaVuSans-75" x="304.785156"/>
      <use xlink:href="#DejaVuSans-72" x="368.164062"/>
      <use xlink:href="#DejaVuSans-76" x="409.277344"/>
      <use xlink:href="#DejaVuSans-65" x="468.457031"/>
      <use xlink:href="#DejaVuSans-20" x="529.980469"/>
      <use xlink:href="#DejaVuSans-6f" x="561.767578"/>
      <use xlink:href="#DejaVuSans-66" x="622.949219"/>
      <use xlink:href="#DejaVuSans-20" x="658.154297"/>
      <use xlink:href="#DejaVuSans-63" x="689.941406"/>
      <use xlink:href="#DejaVuSans-6c" x="744.921875"/>
      <use xlink:href="#DejaVuSans-61" x="772.705078"/>
      <use xlink:href="#DejaVuSans-73" x="833.984375"/>
      <use xlink:href="#DejaVuSans-73" x="886.083984"/>
      <use xlink:href="#DejaVuSans-20" x="938.183594"/>
      <use xlink:href="#DejaVuSans-37" x="969.970703"/>
      <use xlink:href="#DejaVuSans-20" x="1033.59375"/>
      <use xlink:href="#DejaVuSans-28" x="1065.380859"/>
      <use xlink:href="#DejaVuSans-61" x="1104.394531"/>
      <use xlink:href="#DejaVuSans-72" x="1165.673828"/>
      <use xlink:href="#DejaVuSans-65" x="1204.537109"/>
      <use xlink:href="#DejaVuSans-61" x="1266.060547"/>
      <use xlink:href="#DejaVuSans-20" x="1327.339844"/>
      <use xlink:href="#DejaVuSans-3d" x="1359.126953"/>
      <use xlink:href="#DejaVuSans-20" x="1442.916016"/>
      <use xlink:href="#DejaVuSans-31" x="1474.703125"/>
      <use xlink:href="#DejaVuSans-2e" x="1538.326172"/>
      <use xlink:href="#DejaVuSans-30" x="1570.113281"/>
      <use xlink:href="#DejaVuSans-30" x="1633.736328"/>
      <use xlink:href="#DejaVuSans-29" x="1697.359375"/>
     </g>
    </g>
    <g id="line2d_33">
     <path d="M 532.62025 540.119489 
L 540.95025 540.119489 
L 549.28025 540.119489 
" style="fill: none; stroke: #808080; stroke-width: 2; stroke-linecap: square"/>
    </g>
    <g id="text_24">
     <!-- ROC curve of class 8 (area = 1.00) -->
     <g transform="translate(555.94425 543.034989) scale(0.0833 -0.0833)">
      <use xlink:href="#DejaVuSans-52"/>
      <use xlink:href="#DejaVuSans-4f" x="69.482422"/>
      <use xlink:href="#DejaVuSans-43" x="148.193359"/>
      <use xlink:href="#DejaVuSans-20" x="218.017578"/>
      <use xlink:href="#DejaVuSans-63" x="249.804688"/>
      <use xlink:href="#DejaVuSans-75" x="304.785156"/>
      <use xlink:href="#DejaVuSans-72" x="368.164062"/>
      <use xlink:href="#DejaVuSans-76" x="409.277344"/>
      <use xlink:href="#DejaVuSans-65" x="468.457031"/>
      <use xlink:href="#DejaVuSans-20" x="529.980469"/>
      <use xlink:href="#DejaVuSans-6f" x="561.767578"/>
      <use xlink:href="#DejaVuSans-66" x="622.949219"/>
      <use xlink:href="#DejaVuSans-20" x="658.154297"/>
      <use xlink:href="#DejaVuSans-63" x="689.941406"/>
      <use xlink:href="#DejaVuSans-6c" x="744.921875"/>
      <use xlink:href="#DejaVuSans-61" x="772.705078"/>
      <use xlink:href="#DejaVuSans-73" x="833.984375"/>
      <use xlink:href="#DejaVuSans-73" x="886.083984"/>
      <use xlink:href="#DejaVuSans-20" x="938.183594"/>
      <use xlink:href="#DejaVuSans-38" x="969.970703"/>
      <use xlink:href="#DejaVuSans-20" x="1033.59375"/>
      <use xlink:href="#DejaVuSans-28" x="1065.380859"/>
      <use xlink:href="#DejaVuSans-61" x="1104.394531"/>
      <use xlink:href="#DejaVuSans-72" x="1165.673828"/>
      <use xlink:href="#DejaVuSans-65" x="1204.537109"/>
      <use xlink:href="#DejaVuSans-61" x="1266.060547"/>
      <use xlink:href="#DejaVuSans-20" x="1327.339844"/>
      <use xlink:href="#DejaVuSans-3d" x="1359.126953"/>
      <use xlink:href="#DejaVuSans-20" x="1442.916016"/>
      <use xlink:href="#DejaVuSans-31" x="1474.703125"/>
      <use xlink:href="#DejaVuSans-2e" x="1538.326172"/>
      <use xlink:href="#DejaVuSans-30" x="1570.113281"/>
      <use xlink:href="#DejaVuSans-30" x="1633.736328"/>
      <use xlink:href="#DejaVuSans-29" x="1697.359375"/>
     </g>
    </g>
    <g id="line2d_34">
     <path d="M 532.62025 552.346367 
L 540.95025 552.346367 
L 549.28025 552.346367 
" style="fill: none; stroke: #808000; stroke-width: 2; stroke-linecap: square"/>
    </g>
    <g id="text_25">
     <!-- ROC curve of class 9 (area = 1.00) -->
     <g transform="translate(555.94425 555.261867) scale(0.0833 -0.0833)">
      <defs>
       <path id="DejaVuSans-39" d="M 703 97 
L 703 672 
Q 941 559 1184 500 
Q 1428 441 1663 441 
Q 2288 441 2617 861 
Q 2947 1281 2994 2138 
Q 2813 1869 2534 1725 
Q 2256 1581 1919 1581 
Q 1219 1581 811 2004 
Q 403 2428 403 3163 
Q 403 3881 828 4315 
Q 1253 4750 1959 4750 
Q 2769 4750 3195 4129 
Q 3622 3509 3622 2328 
Q 3622 1225 3098 567 
Q 2575 -91 1691 -91 
Q 1453 -91 1209 -44 
Q 966 3 703 97 
z
M 1959 2075 
Q 2384 2075 2632 2365 
Q 2881 2656 2881 3163 
Q 2881 3666 2632 3958 
Q 2384 4250 1959 4250 
Q 1534 4250 1286 3958 
Q 1038 3666 1038 3163 
Q 1038 2656 1286 2365 
Q 1534 2075 1959 2075 
z
" transform="scale(0.015625)"/>
      </defs>
      <use xlink:href="#DejaVuSans-52"/>
      <use xlink:href="#DejaVuSans-4f" x="69.482422"/>
      <use xlink:href="#DejaVuSans-43" x="148.193359"/>
      <use xlink:href="#DejaVuSans-20" x="218.017578"/>
      <use xlink:href="#DejaVuSans-63" x="249.804688"/>
      <use xlink:href="#DejaVuSans-75" x="304.785156"/>
      <use xlink:href="#DejaVuSans-72" x="368.164062"/>
      <use xlink:href="#DejaVuSans-76" x="409.277344"/>
      <use xlink:href="#DejaVuSans-65" x="468.457031"/>
      <use xlink:href="#DejaVuSans-20" x="529.980469"/>
      <use xlink:href="#DejaVuSans-6f" x="561.767578"/>
      <use xlink:href="#DejaVuSans-66" x="622.949219"/>
      <use xlink:href="#DejaVuSans-20" x="658.154297"/>
      <use xlink:href="#DejaVuSans-63" x="689.941406"/>
      <use xlink:href="#DejaVuSans-6c" x="744.921875"/>
      <use xlink:href="#DejaVuSans-61" x="772.705078"/>
      <use xlink:href="#DejaVuSans-73" x="833.984375"/>
      <use xlink:href="#DejaVuSans-73" x="886.083984"/>
      <use xlink:href="#DejaVuSans-20" x="938.183594"/>
      <use xlink:href="#DejaVuSans-39" x="969.970703"/>
      <use xlink:href="#DejaVuSans-20" x="1033.59375"/>
      <use xlink:href="#DejaVuSans-28" x="1065.380859"/>
      <use xlink:href="#DejaVuSans-61" x="1104.394531"/>
      <use xlink:href="#DejaVuSans-72" x="1165.673828"/>
      <use xlink:href="#DejaVuSans-65" x="1204.537109"/>
      <use xlink:href="#DejaVuSans-61" x="1266.060547"/>
      <use xlink:href="#DejaVuSans-20" x="1327.339844"/>
      <use xlink:href="#DejaVuSans-3d" x="1359.126953"/>
      <use xlink:href="#DejaVuSans-20" x="1442.916016"/>
      <use xlink:href="#DejaVuSans-31" x="1474.703125"/>
      <use xlink:href="#DejaVuSans-2e" x="1538.326172"/>
      <use xlink:href="#DejaVuSans-30" x="1570.113281"/>
      <use xlink:href="#DejaVuSans-30" x="1633.736328"/>
      <use xlink:href="#DejaVuSans-29" x="1697.359375"/>
     </g>
    </g>
    <g id="line2d_35">
     <path d="M 532.62025 564.573245 
L 540.95025 564.573245 
L 549.28025 564.573245 
" style="fill: none; stroke: #00ffff; stroke-width: 2; stroke-linecap: square"/>
    </g>
    <g id="text_26">
     <!-- ROC curve of class 10 (area = 1.00) -->
     <g transform="translate(555.94425 567.488745) scale(0.0833 -0.0833)">
      <use xlink:href="#DejaVuSans-52"/>
      <use xlink:href="#DejaVuSans-4f" x="69.482422"/>
      <use xlink:href="#DejaVuSans-43" x="148.193359"/>
      <use xlink:href="#DejaVuSans-20" x="218.017578"/>
      <use xlink:href="#DejaVuSans-63" x="249.804688"/>
      <use xlink:href="#DejaVuSans-75" x="304.785156"/>
      <use xlink:href="#DejaVuSans-72" x="368.164062"/>
      <use xlink:href="#DejaVuSans-76" x="409.277344"/>
      <use xlink:href="#DejaVuSans-65" x="468.457031"/>
      <use xlink:href="#DejaVuSans-20" x="529.980469"/>
      <use xlink:href="#DejaVuSans-6f" x="561.767578"/>
      <use xlink:href="#DejaVuSans-66" x="622.949219"/>
      <use xlink:href="#DejaVuSans-20" x="658.154297"/>
      <use xlink:href="#DejaVuSans-63" x="689.941406"/>
      <use xlink:href="#DejaVuSans-6c" x="744.921875"/>
      <use xlink:href="#DejaVuSans-61" x="772.705078"/>
      <use xlink:href="#DejaVuSans-73" x="833.984375"/>
      <use xlink:href="#DejaVuSans-73" x="886.083984"/>
      <use xlink:href="#DejaVuSans-20" x="938.183594"/>
      <use xlink:href="#DejaVuSans-31" x="969.970703"/>
      <use xlink:href="#DejaVuSans-30" x="1033.59375"/>
      <use xlink:href="#DejaVuSans-20" x="1097.216797"/>
      <use xlink:href="#DejaVuSans-28" x="1129.003906"/>
      <use xlink:href="#DejaVuSans-61" x="1168.017578"/>
      <use xlink:href="#DejaVuSans-72" x="1229.296875"/>
      <use xlink:href="#DejaVuSans-65" x="1268.160156"/>
      <use xlink:href="#DejaVuSans-61" x="1329.683594"/>
      <use xlink:href="#DejaVuSans-20" x="1390.962891"/>
      <use xlink:href="#DejaVuSans-3d" x="1422.75"/>
      <use xlink:href="#DejaVuSans-20" x="1506.539062"/>
      <use xlink:href="#DejaVuSans-31" x="1538.326172"/>
      <use xlink:href="#DejaVuSans-2e" x="1601.949219"/>
      <use xlink:href="#DejaVuSans-30" x="1633.736328"/>
      <use xlink:href="#DejaVuSans-30" x="1697.359375"/>
      <use xlink:href="#DejaVuSans-29" x="1760.982422"/>
     </g>
    </g>
   </g>
  </g>
 </g>
 <defs>
  <clipPath id="p2995d69135">
   <rect x="43.78125" y="22.318125" width="669.6" height="554.4"/>
  </clipPath>
 </defs>
</svg>
